<svg width="260" height="260" viewBox="0 0 260 260" fill="none" xmlns="http://www.w3.org/2000/svg">
<circle cx="131.564" cy="38.0278" r="38.0278" fill="url(#paint0_linear)"/>
<g filter="url(#filter0_dd)">
<path fill-rule="evenodd" clip-rule="evenodd" d="M92.548 54.8367C89.4774 47.8726 83.3206 42 75.7095 42H16C10.4772 42 6 46.4772 6 52V238C6 246.284 12.7157 253 21 253H239C247.284 253 254 246.284 254 238V52C254 46.4772 249.523 42 244 42H187.896C180.285 42 174.128 47.8726 171.057 54.8367C164.307 70.147 149.27 80.8017 131.803 80.8017C114.336 80.8017 99.2986 70.147 92.548 54.8367Z" fill="url(#paint1_linear)"/>
</g>
<path d="M95.5605 104.842C95.5605 107.166 94.9779 108.973 93.8125 110.262C92.6536 111.551 91.0098 112.195 88.8809 112.195C86.7259 112.195 85.069 111.557 83.9102 110.281C82.7578 108.999 82.1816 107.179 82.1816 104.822C82.1816 102.465 82.7611 100.656 83.9199 99.3926C85.0853 98.1296 86.7454 97.498 88.9004 97.498C91.0228 97.498 92.6634 98.1393 93.8223 99.4219C94.9811 100.704 95.5605 102.511 95.5605 104.842ZM84.6621 104.842C84.6621 106.6 85.0169 107.934 85.7266 108.846C86.4362 109.751 87.4876 110.203 88.8809 110.203C90.2676 110.203 91.3125 109.754 92.0156 108.855C92.7253 107.957 93.0801 106.619 93.0801 104.842C93.0801 103.09 92.7285 101.762 92.0254 100.857C91.3288 99.9525 90.2871 99.5 88.9004 99.5C87.5007 99.5 86.4427 99.9525 85.7266 100.857C85.0169 101.762 84.6621 103.09 84.6621 104.842ZM97.7578 105.516C97.7578 103.107 98.1647 101.255 98.9785 99.959C99.7988 98.6634 101.101 97.8301 102.885 97.459C104.232 97.1855 105.785 96.9186 107.543 96.6582L107.865 98.6797C105.73 99.0052 104.167 99.2591 103.178 99.4414C102.156 99.6302 101.417 100.05 100.961 100.701C100.512 101.352 100.251 102.332 100.18 103.641H100.326C100.697 103.1 101.182 102.684 101.781 102.391C102.38 102.091 103.021 101.941 103.705 101.941C105.033 101.941 106.068 102.361 106.811 103.201C107.553 104.041 107.924 105.219 107.924 106.736C107.924 108.475 107.471 109.819 106.566 110.77C105.668 111.72 104.421 112.195 102.826 112.195C101.244 112.195 100.004 111.609 99.1055 110.438C98.207 109.266 97.7578 107.625 97.7578 105.516ZM102.982 110.32C104.688 110.32 105.541 109.201 105.541 106.961C105.541 104.799 104.77 103.719 103.227 103.719C102.803 103.719 102.393 103.81 101.996 103.992C101.599 104.174 101.231 104.415 100.893 104.715C100.561 105.014 100.303 105.324 100.121 105.643C100.121 107.179 100.365 108.344 100.854 109.139C101.342 109.926 102.051 110.32 102.982 110.32ZM108.93 101.199H111.43L113.627 107.322C113.959 108.195 114.18 109.015 114.291 109.783H114.369C114.428 109.425 114.535 108.992 114.691 108.484C114.848 107.97 115.674 105.542 117.172 101.199H119.652L115.033 113.436C114.193 115.682 112.794 116.805 110.834 116.805C110.326 116.805 109.831 116.749 109.35 116.639V114.822C109.695 114.9 110.089 114.939 110.531 114.939C111.638 114.939 112.416 114.298 112.865 113.016L113.266 112L108.93 101.199ZM123.314 101.199V105.145C123.314 106.251 123.887 106.805 125.033 106.805C125.587 106.805 126.127 106.73 126.654 106.58C127.182 106.424 127.748 106.176 128.354 105.838V101.199H130.648V112H128.354V107.42C127.722 107.811 127.11 108.1 126.518 108.289C125.932 108.471 125.29 108.562 124.594 108.562C123.467 108.562 122.589 108.273 121.957 107.693C121.326 107.107 121.01 106.29 121.01 105.242V101.199H123.314ZM138.646 112.195C136.967 112.195 135.652 111.707 134.701 110.73C133.757 109.747 133.285 108.396 133.285 106.678C133.285 104.913 133.725 103.527 134.604 102.518C135.482 101.508 136.69 101.004 138.227 101.004C139.652 101.004 140.779 101.437 141.605 102.303C142.432 103.169 142.846 104.36 142.846 105.877V107.117H135.648C135.681 108.165 135.964 108.973 136.498 109.539C137.032 110.099 137.784 110.379 138.754 110.379C139.392 110.379 139.984 110.32 140.531 110.203C141.085 110.079 141.677 109.878 142.309 109.598V111.463C141.749 111.73 141.182 111.919 140.609 112.029C140.036 112.14 139.382 112.195 138.646 112.195ZM138.227 102.742C137.497 102.742 136.911 102.973 136.469 103.436C136.033 103.898 135.772 104.572 135.688 105.457H140.59C140.577 104.565 140.362 103.891 139.945 103.436C139.529 102.973 138.956 102.742 138.227 102.742ZM147.748 101.199V105.535H152.836V101.199H155.131V112H152.836V107.342H147.748V112H145.453V101.199H147.748ZM160.619 101.199V106.736C160.619 107.381 160.567 108.328 160.463 109.578L165.883 101.199H168.686V112H166.479V106.561C166.479 106.261 166.495 105.776 166.527 105.105C166.566 104.435 166.599 103.947 166.625 103.641L161.225 112H158.422V101.199H160.619ZM176.674 112.195C174.994 112.195 173.679 111.707 172.729 110.73C171.785 109.747 171.312 108.396 171.312 106.678C171.312 104.913 171.752 103.527 172.631 102.518C173.51 101.508 174.717 101.004 176.254 101.004C177.68 101.004 178.806 101.437 179.633 102.303C180.46 103.169 180.873 104.36 180.873 105.877V107.117H173.676C173.708 108.165 173.992 108.973 174.525 109.539C175.059 110.099 175.811 110.379 176.781 110.379C177.419 110.379 178.012 110.32 178.559 110.203C179.112 110.079 179.704 109.878 180.336 109.598V111.463C179.776 111.73 179.21 111.919 178.637 112.029C178.064 112.14 177.41 112.195 176.674 112.195ZM176.254 102.742C175.525 102.742 174.939 102.973 174.496 103.436C174.06 103.898 173.799 104.572 173.715 105.457H178.617C178.604 104.565 178.389 103.891 177.973 103.436C177.556 102.973 176.983 102.742 176.254 102.742Z" fill="black"/>
<path d="M73.1406 173H63.7559V171.604L67.5156 167.824C68.6615 166.665 69.4167 165.839 69.7812 165.344C70.1458 164.849 70.4193 164.367 70.6016 163.898C70.7839 163.43 70.875 162.925 70.875 162.385C70.875 161.623 70.6439 161.021 70.1816 160.578C69.7194 160.129 69.0781 159.904 68.2578 159.904C67.6654 159.904 67.1022 160.002 66.5684 160.197C66.041 160.393 65.4518 160.747 64.8008 161.262L63.9414 160.158C65.2565 159.064 66.6888 158.518 68.2383 158.518C69.5794 158.518 70.6309 158.863 71.3926 159.553C72.1543 160.236 72.5352 161.158 72.5352 162.316C72.5352 163.221 72.2812 164.117 71.7734 165.002C71.2656 165.887 70.3151 167.007 68.9219 168.361L65.7969 171.418V171.496H73.1406V173ZM84.6641 165.842C84.6641 168.309 84.2734 170.152 83.4922 171.369C82.7174 172.587 81.5293 173.195 79.9277 173.195C78.3913 173.195 77.2227 172.574 76.4219 171.33C75.6211 170.08 75.2207 168.251 75.2207 165.842C75.2207 163.355 75.6081 161.509 76.3828 160.305C77.1576 159.1 78.3392 158.498 79.9277 158.498C81.4772 158.498 82.6523 159.126 83.4531 160.383C84.2604 161.639 84.6641 163.459 84.6641 165.842ZM76.8613 165.842C76.8613 167.919 77.1055 169.432 77.5938 170.383C78.082 171.327 78.86 171.799 79.9277 171.799C81.0085 171.799 81.7897 171.32 82.2715 170.363C82.7598 169.4 83.0039 167.893 83.0039 165.842C83.0039 163.791 82.7598 162.29 82.2715 161.34C81.7897 160.383 81.0085 159.904 79.9277 159.904C78.86 159.904 78.082 160.376 77.5938 161.32C77.1055 162.258 76.8613 163.765 76.8613 165.842ZM100.562 173H98.9219V163.684H95.709C95.5332 166.001 95.2891 167.84 94.9766 169.201C94.6641 170.562 94.2572 171.558 93.7559 172.189C93.2611 172.821 92.6296 173.137 91.8613 173.137C91.5098 173.137 91.2298 173.098 91.0215 173.02V171.818C91.1647 171.857 91.3275 171.877 91.5098 171.877C92.2585 171.877 92.8542 171.086 93.2969 169.504C93.7396 167.922 94.0749 165.52 94.3027 162.297H100.562V173ZM108.531 173.195C106.949 173.195 105.699 172.714 104.781 171.75C103.87 170.786 103.414 169.449 103.414 167.736C103.414 166.011 103.837 164.641 104.684 163.625C105.536 162.609 106.679 162.102 108.111 162.102C109.452 162.102 110.514 162.544 111.295 163.43C112.076 164.309 112.467 165.471 112.467 166.916V167.941H105.094C105.126 169.198 105.442 170.152 106.041 170.803C106.646 171.454 107.496 171.779 108.59 171.779C109.742 171.779 110.882 171.538 112.008 171.057V172.502C111.435 172.749 110.891 172.925 110.377 173.029C109.869 173.14 109.254 173.195 108.531 173.195ZM108.092 163.459C107.232 163.459 106.546 163.739 106.031 164.299C105.523 164.859 105.224 165.633 105.133 166.623H110.729C110.729 165.601 110.501 164.82 110.045 164.279C109.589 163.732 108.938 163.459 108.092 163.459ZM122.457 163.684H118.98V173H117.359V163.684H113.922V162.297H122.457V163.684ZM134.752 173.195C134.055 173.195 133.417 173.068 132.838 172.814C132.265 172.554 131.783 172.157 131.393 171.623H131.275C131.354 172.248 131.393 172.84 131.393 173.4V177.805H129.771V162.297H131.09L131.314 163.762H131.393C131.809 163.176 132.294 162.753 132.848 162.492C133.401 162.232 134.036 162.102 134.752 162.102C136.171 162.102 137.265 162.587 138.033 163.557C138.808 164.527 139.195 165.887 139.195 167.639C139.195 169.396 138.801 170.764 138.014 171.74C137.232 172.71 136.145 173.195 134.752 173.195ZM134.518 163.479C133.424 163.479 132.633 163.781 132.145 164.387C131.656 164.992 131.406 165.956 131.393 167.277V167.639C131.393 169.143 131.643 170.22 132.145 170.871C132.646 171.516 133.45 171.838 134.557 171.838C135.481 171.838 136.204 171.464 136.725 170.715C137.252 169.966 137.516 168.934 137.516 167.619C137.516 166.285 137.252 165.262 136.725 164.553C136.204 163.837 135.468 163.479 134.518 163.479ZM148.619 173L148.297 171.477H148.219C147.685 172.147 147.151 172.603 146.617 172.844C146.09 173.078 145.429 173.195 144.635 173.195C143.574 173.195 142.74 172.922 142.135 172.375C141.536 171.828 141.236 171.05 141.236 170.041C141.236 167.88 142.965 166.747 146.422 166.643L148.238 166.584V165.92C148.238 165.08 148.056 164.462 147.691 164.064C147.333 163.661 146.757 163.459 145.963 163.459C145.071 163.459 144.062 163.732 142.936 164.279L142.438 163.039C142.965 162.753 143.541 162.528 144.166 162.365C144.798 162.202 145.429 162.121 146.061 162.121C147.337 162.121 148.281 162.404 148.893 162.971C149.511 163.537 149.82 164.445 149.82 165.695V173H148.619ZM144.957 171.857C145.966 171.857 146.757 171.581 147.33 171.027C147.91 170.474 148.199 169.699 148.199 168.703V167.736L146.578 167.805C145.289 167.85 144.358 168.052 143.785 168.41C143.219 168.762 142.936 169.312 142.936 170.061C142.936 170.646 143.111 171.092 143.463 171.398C143.821 171.704 144.319 171.857 144.957 171.857ZM152.613 166.584C152.613 164.24 152.958 162.414 153.648 161.105C154.339 159.79 155.432 158.97 156.93 158.645C158.792 158.247 160.432 157.925 161.852 157.678L162.154 159.104C159.895 159.481 158.281 159.781 157.311 160.002C156.367 160.217 155.657 160.725 155.182 161.525C154.713 162.326 154.456 163.417 154.41 164.797H154.527C154.931 164.25 155.452 163.82 156.09 163.508C156.728 163.195 157.395 163.039 158.092 163.039C159.407 163.039 160.432 163.465 161.168 164.318C161.904 165.171 162.271 166.353 162.271 167.863C162.271 169.536 161.845 170.845 160.992 171.789C160.139 172.727 158.951 173.195 157.428 173.195C155.924 173.195 154.745 172.619 153.893 171.467C153.04 170.314 152.613 168.687 152.613 166.584ZM157.574 171.838C159.56 171.838 160.553 170.572 160.553 168.039C160.553 165.624 159.651 164.416 157.848 164.416C157.353 164.416 156.874 164.52 156.412 164.729C155.956 164.93 155.536 165.201 155.152 165.539C154.775 165.878 154.482 166.226 154.273 166.584C154.273 168.296 154.544 169.602 155.084 170.5C155.624 171.392 156.454 171.838 157.574 171.838ZM174.342 167.639C174.342 169.383 173.902 170.747 173.023 171.73C172.145 172.707 170.93 173.195 169.381 173.195C168.424 173.195 167.574 172.971 166.832 172.521C166.09 172.072 165.517 171.428 165.113 170.588C164.71 169.748 164.508 168.765 164.508 167.639C164.508 165.894 164.944 164.536 165.816 163.566C166.689 162.59 167.9 162.102 169.449 162.102C170.947 162.102 172.135 162.6 173.014 163.596C173.899 164.592 174.342 165.939 174.342 167.639ZM166.188 167.639C166.188 169.006 166.461 170.048 167.008 170.764C167.555 171.48 168.359 171.838 169.42 171.838C170.481 171.838 171.285 171.483 171.832 170.773C172.385 170.057 172.662 169.012 172.662 167.639C172.662 166.278 172.385 165.246 171.832 164.543C171.285 163.833 170.475 163.479 169.4 163.479C168.339 163.479 167.538 163.827 166.998 164.523C166.458 165.22 166.188 166.258 166.188 167.639ZM184.41 163.684H180.934V173H179.312V163.684H175.875V162.297H184.41V163.684ZM188.15 166.721H191.07C192.431 166.721 193.437 166.975 194.088 167.482C194.745 167.984 195.074 168.736 195.074 169.738C195.074 170.812 194.726 171.626 194.029 172.18C193.339 172.727 192.32 173 190.973 173H186.529V162.297H188.15V166.721ZM198.492 173H196.871V162.297H198.492V173ZM188.15 168.117V171.643H190.895C192.613 171.643 193.473 171.04 193.473 169.836C193.473 169.237 193.274 168.801 192.877 168.527C192.48 168.254 191.803 168.117 190.846 168.117H188.15ZM58.5312 187.297V194.084L58.4629 195.861L58.4336 196.418L64.2246 187.297H66.2461V198H64.7324V191.457L64.7617 190.168L64.8105 188.898L59.0293 198H57.0078V187.297H58.5312ZM76.5 198.195C75.4128 198.195 74.485 198.01 73.7168 197.639V196.203C74.1074 196.353 74.5306 196.486 74.9863 196.604C75.4421 196.721 75.9661 196.779 76.5586 196.779C77.6914 196.779 78.5638 196.477 79.1758 195.871C79.7943 195.266 80.1361 194.361 80.2012 193.156H74.7812V191.779H80.1816C80.0775 190.66 79.7487 189.839 79.1953 189.318C78.6484 188.798 77.8509 188.537 76.8027 188.537C76.1322 188.537 75.3053 188.713 74.3223 189.064L73.8633 187.697C74.2214 187.528 74.6673 187.388 75.2012 187.277C75.735 187.16 76.2624 187.102 76.7832 187.102C78.4499 187.102 79.7161 187.58 80.582 188.537C81.4479 189.488 81.8809 190.861 81.8809 192.658C81.8809 194.41 81.4089 195.77 80.4648 196.74C79.5273 197.71 78.2057 198.195 76.5 198.195ZM90.9629 187.297H92.7402L88.1211 192.463L93.1211 198H91.2266L86.3438 192.58V198H84.7227V187.297H86.3438V192.502L90.9629 187.297ZM99.3906 198.195C97.8411 198.195 96.64 197.72 95.7871 196.77C94.9408 195.812 94.5176 194.462 94.5176 192.717C94.5176 190.926 94.9473 189.543 95.8066 188.566C96.6725 187.59 97.903 187.102 99.498 187.102C100.012 187.102 100.527 187.157 101.041 187.268C101.555 187.378 101.959 187.508 102.252 187.658L101.754 189.035C101.396 188.892 101.005 188.775 100.582 188.684C100.159 188.586 99.7845 188.537 99.459 188.537C97.2845 188.537 96.1973 189.924 96.1973 192.697C96.1973 194.012 96.4609 195.021 96.9883 195.725C97.5221 196.428 98.3099 196.779 99.3516 196.779C100.243 196.779 101.158 196.587 102.096 196.203V197.639C101.38 198.01 100.478 198.195 99.3906 198.195ZM106.266 198H104.645V187.297H113.629V198H111.988V188.703H106.266V198ZM121.588 198.195C120.006 198.195 118.756 197.714 117.838 196.75C116.926 195.786 116.471 194.449 116.471 192.736C116.471 191.011 116.894 189.641 117.74 188.625C118.593 187.609 119.736 187.102 121.168 187.102C122.509 187.102 123.57 187.544 124.352 188.43C125.133 189.309 125.523 190.471 125.523 191.916V192.941H118.15C118.183 194.198 118.499 195.152 119.098 195.803C119.703 196.454 120.553 196.779 121.646 196.779C122.799 196.779 123.938 196.538 125.064 196.057V197.502C124.492 197.749 123.948 197.925 123.434 198.029C122.926 198.14 122.311 198.195 121.588 198.195ZM121.148 188.459C120.289 188.459 119.602 188.739 119.088 189.299C118.58 189.859 118.281 190.633 118.189 191.623H123.785C123.785 190.601 123.557 189.82 123.102 189.279C122.646 188.732 121.995 188.459 121.148 188.459ZM133.277 198.195C132.581 198.195 131.943 198.068 131.363 197.814C130.79 197.554 130.309 197.157 129.918 196.623H129.801C129.879 197.248 129.918 197.84 129.918 198.4V202.805H128.297V187.297H129.615L129.84 188.762H129.918C130.335 188.176 130.82 187.753 131.373 187.492C131.926 187.232 132.561 187.102 133.277 187.102C134.697 187.102 135.79 187.587 136.559 188.557C137.333 189.527 137.721 190.887 137.721 192.639C137.721 194.396 137.327 195.764 136.539 196.74C135.758 197.71 134.671 198.195 133.277 198.195ZM133.043 188.479C131.949 188.479 131.158 188.781 130.67 189.387C130.182 189.992 129.931 190.956 129.918 192.277V192.639C129.918 194.143 130.169 195.22 130.67 195.871C131.171 196.516 131.975 196.838 133.082 196.838C134.007 196.838 134.729 196.464 135.25 195.715C135.777 194.966 136.041 193.934 136.041 192.619C136.041 191.285 135.777 190.262 135.25 189.553C134.729 188.837 133.993 188.479 133.043 188.479ZM147.779 188.684H144.303V198H142.682V188.684H139.244V187.297H147.779V188.684ZM151.422 187.297V194.084L151.354 195.861L151.324 196.418L157.115 187.297H159.137V198H157.623V191.457L157.652 190.168L157.701 188.898L151.92 198H149.898V187.297H151.422ZM164.615 191.74C166.64 191.74 167.652 191.18 167.652 190.061C167.652 189.006 166.832 188.479 165.191 188.479C164.69 188.479 164.234 188.524 163.824 188.615C163.414 188.706 162.877 188.889 162.213 189.162L161.637 187.844C162.743 187.349 163.951 187.102 165.26 187.102C166.49 187.102 167.46 187.355 168.17 187.863C168.88 188.365 169.234 189.051 169.234 189.924C169.234 191.122 168.567 191.906 167.232 192.277V192.355C168.053 192.596 168.652 192.941 169.029 193.391C169.407 193.833 169.596 194.39 169.596 195.061C169.596 196.05 169.195 196.822 168.395 197.375C167.6 197.922 166.5 198.195 165.094 198.195C163.551 198.195 162.359 197.964 161.52 197.502V196.018C162.711 196.577 163.915 196.857 165.133 196.857C166.07 196.857 166.777 196.698 167.252 196.379C167.734 196.053 167.975 195.588 167.975 194.982C167.975 193.739 166.962 193.117 164.938 193.117H163.453V191.74H164.615ZM173.863 191.721H176.783C178.144 191.721 179.15 191.975 179.801 192.482C180.458 192.984 180.787 193.736 180.787 194.738C180.787 195.812 180.439 196.626 179.742 197.18C179.052 197.727 178.033 198 176.686 198H172.242V187.297H173.863V191.721ZM184.205 198H182.584V187.297H184.205V198ZM173.863 193.117V196.643H176.607C178.326 196.643 179.186 196.04 179.186 194.836C179.186 194.237 178.987 193.801 178.59 193.527C178.193 193.254 177.516 193.117 176.559 193.117H173.863ZM201.529 189.982C201.529 190.679 201.327 191.21 200.924 191.574C200.527 191.932 199.967 192.173 199.244 192.297V192.385C200.156 192.508 200.82 192.775 201.236 193.186C201.66 193.596 201.871 194.162 201.871 194.885C201.871 195.881 201.503 196.649 200.768 197.189C200.038 197.73 198.971 198 197.564 198H192.848V187.297H197.545C200.201 187.297 201.529 188.192 201.529 189.982ZM200.25 194.777C200.25 194.198 200.029 193.778 199.586 193.518C199.15 193.251 198.424 193.117 197.408 193.117H194.469V196.643H197.447C199.316 196.643 200.25 196.021 200.25 194.777ZM199.947 190.139C199.947 189.618 199.745 189.25 199.342 189.035C198.945 188.814 198.339 188.703 197.525 188.703H194.469V191.721H197.213C198.215 191.721 198.922 191.597 199.332 191.35C199.742 191.102 199.947 190.699 199.947 190.139ZM40.6211 223.195C39.9245 223.195 39.2865 223.068 38.707 222.814C38.1341 222.554 37.6523 222.157 37.2617 221.623H37.1445C37.2227 222.248 37.2617 222.84 37.2617 223.4V227.805H35.6406V212.297H36.959L37.1836 213.762H37.2617C37.6784 213.176 38.1634 212.753 38.7168 212.492C39.2702 212.232 39.9049 212.102 40.6211 212.102C42.0404 212.102 43.1341 212.587 43.9023 213.557C44.6771 214.527 45.0645 215.887 45.0645 217.639C45.0645 219.396 44.6706 220.764 43.8828 221.74C43.1016 222.71 42.0143 223.195 40.6211 223.195ZM40.3867 213.479C39.293 213.479 38.502 213.781 38.0137 214.387C37.5254 214.992 37.2747 215.956 37.2617 217.277V217.639C37.2617 219.143 37.5124 220.22 38.0137 220.871C38.515 221.516 39.319 221.838 40.4258 221.838C41.3503 221.838 42.0729 221.464 42.5938 220.715C43.1211 219.966 43.3848 218.934 43.3848 217.619C43.3848 216.285 43.1211 215.262 42.5938 214.553C42.0729 213.837 41.3372 213.479 40.3867 213.479ZM57.1445 217.639C57.1445 219.383 56.7051 220.747 55.8262 221.73C54.9473 222.707 53.7331 223.195 52.1836 223.195C51.2266 223.195 50.377 222.971 49.6348 222.521C48.8926 222.072 48.3197 221.428 47.916 220.588C47.5124 219.748 47.3105 218.765 47.3105 217.639C47.3105 215.894 47.7467 214.536 48.6191 213.566C49.4915 212.59 50.7025 212.102 52.252 212.102C53.7493 212.102 54.9375 212.6 55.8164 213.596C56.7018 214.592 57.1445 215.939 57.1445 217.639ZM48.9902 217.639C48.9902 219.006 49.2637 220.048 49.8105 220.764C50.3574 221.48 51.1615 221.838 52.2227 221.838C53.2839 221.838 54.0879 221.483 54.6348 220.773C55.1882 220.057 55.4648 219.012 55.4648 217.639C55.4648 216.278 55.1882 215.246 54.6348 214.543C54.0879 213.833 53.2773 213.479 52.2031 213.479C51.1419 213.479 50.3411 213.827 49.8008 214.523C49.2604 215.22 48.9902 216.258 48.9902 217.639ZM62.0371 216.74C64.0618 216.74 65.0742 216.18 65.0742 215.061C65.0742 214.006 64.2539 213.479 62.6133 213.479C62.112 213.479 61.6562 213.524 61.2461 213.615C60.8359 213.706 60.2988 213.889 59.6348 214.162L59.0586 212.844C60.1654 212.349 61.373 212.102 62.6816 212.102C63.9121 212.102 64.8822 212.355 65.5918 212.863C66.3014 213.365 66.6562 214.051 66.6562 214.924C66.6562 216.122 65.9889 216.906 64.6543 217.277V217.355C65.4746 217.596 66.0736 217.941 66.4512 218.391C66.8288 218.833 67.0176 219.39 67.0176 220.061C67.0176 221.05 66.6172 221.822 65.8164 222.375C65.0221 222.922 63.9219 223.195 62.5156 223.195C60.9727 223.195 59.7812 222.964 58.9414 222.502V221.018C60.1328 221.577 61.3372 221.857 62.5547 221.857C63.4922 221.857 64.1986 221.698 64.6738 221.379C65.1556 221.053 65.3965 220.588 65.3965 219.982C65.3965 218.739 64.3841 218.117 62.3594 218.117H60.875V216.74H62.0371ZM71.2852 212.297V216.779H77.2812V212.297H78.9023V223H77.2812V218.176H71.2852V223H69.6641V212.297H71.2852ZM83.8633 212.297V219.084L83.7949 220.861L83.7656 221.418L89.5566 212.297H91.5781V223H90.0645V216.457L90.0938 215.168L90.1426 213.898L84.3613 223H82.3398V212.297H83.8633ZM96.4414 212.297V216.203C96.4414 217.453 97.1543 218.078 98.5801 218.078C99.1725 218.078 99.7389 217.987 100.279 217.805C100.82 217.622 101.432 217.313 102.115 216.877V212.297H103.736V223H102.115V218.156C101.432 218.625 100.797 218.957 100.211 219.152C99.6315 219.341 98.974 219.436 98.2383 219.436C97.1706 219.436 96.334 219.156 95.7285 218.596C95.123 218.036 94.8203 217.277 94.8203 216.32V212.297H96.4414ZM108.805 212.297V216.779H114.801V212.297H116.422V223H114.801V218.176H108.805V223H107.184V212.297H108.805ZM129.098 217.639C129.098 219.383 128.658 220.747 127.779 221.73C126.9 222.707 125.686 223.195 124.137 223.195C123.18 223.195 122.33 222.971 121.588 222.521C120.846 222.072 120.273 221.428 119.869 220.588C119.465 219.748 119.264 218.765 119.264 217.639C119.264 215.894 119.7 214.536 120.572 213.566C121.445 212.59 122.656 212.102 124.205 212.102C125.702 212.102 126.891 212.6 127.77 213.596C128.655 214.592 129.098 215.939 129.098 217.639ZM120.943 217.639C120.943 219.006 121.217 220.048 121.764 220.764C122.311 221.48 123.115 221.838 124.176 221.838C125.237 221.838 126.041 221.483 126.588 220.773C127.141 220.057 127.418 219.012 127.418 217.639C127.418 216.278 127.141 215.246 126.588 214.543C126.041 213.833 125.23 213.479 124.156 213.479C123.095 213.479 122.294 213.827 121.754 214.523C121.214 215.22 120.943 216.258 120.943 217.639ZM137.506 221.438L137.809 220.529L138.229 219.377L141.129 212.316H143.189V223H141.754V214.162L141.559 214.729L140.992 216.223L138.229 223H136.871L134.107 216.203C133.762 215.331 133.525 214.65 133.395 214.162V223H131.949V212.316H133.932L136.734 219.104C137.014 219.82 137.271 220.598 137.506 221.438ZM151.295 216.584C151.295 214.24 151.64 212.414 152.33 211.105C153.02 209.79 154.114 208.97 155.611 208.645C157.473 208.247 159.114 207.925 160.533 207.678L160.836 209.104C158.577 209.481 156.962 209.781 155.992 210.002C155.048 210.217 154.339 210.725 153.863 211.525C153.395 212.326 153.137 213.417 153.092 214.797H153.209C153.613 214.25 154.133 213.82 154.771 213.508C155.41 213.195 156.077 213.039 156.773 213.039C158.089 213.039 159.114 213.465 159.85 214.318C160.585 215.171 160.953 216.353 160.953 217.863C160.953 219.536 160.527 220.845 159.674 221.789C158.821 222.727 157.633 223.195 156.109 223.195C154.605 223.195 153.427 222.619 152.574 221.467C151.721 220.314 151.295 218.687 151.295 216.584ZM156.256 221.838C158.242 221.838 159.234 220.572 159.234 218.039C159.234 215.624 158.333 214.416 156.529 214.416C156.035 214.416 155.556 214.52 155.094 214.729C154.638 214.93 154.218 215.201 153.834 215.539C153.456 215.878 153.163 216.226 152.955 216.584C152.955 218.296 153.225 219.602 153.766 220.5C154.306 221.392 155.136 221.838 156.256 221.838ZM165.309 212.297V219.084L165.24 220.861L165.211 221.418L171.002 212.297H173.023V223H171.51V216.457L171.539 215.168L171.588 213.898L165.807 223H163.785V212.297H165.309ZM178.502 216.74C180.527 216.74 181.539 216.18 181.539 215.061C181.539 214.006 180.719 213.479 179.078 213.479C178.577 213.479 178.121 213.524 177.711 213.615C177.301 213.706 176.764 213.889 176.1 214.162L175.523 212.844C176.63 212.349 177.838 212.102 179.146 212.102C180.377 212.102 181.347 212.355 182.057 212.863C182.766 213.365 183.121 214.051 183.121 214.924C183.121 216.122 182.454 216.906 181.119 217.277V217.355C181.939 217.596 182.538 217.941 182.916 218.391C183.294 218.833 183.482 219.39 183.482 220.061C183.482 221.05 183.082 221.822 182.281 222.375C181.487 222.922 180.387 223.195 178.98 223.195C177.438 223.195 176.246 222.964 175.406 222.502V221.018C176.598 221.577 177.802 221.857 179.02 221.857C179.957 221.857 180.663 221.698 181.139 221.379C181.62 221.053 181.861 220.588 181.861 219.982C181.861 218.739 180.849 218.117 178.824 218.117H177.34V216.74H178.502ZM187.75 212.297V216.779H193.746V212.297H195.367V223H193.746V218.176H187.75V223H186.129V212.297H187.75ZM203.326 223.195C201.744 223.195 200.494 222.714 199.576 221.75C198.665 220.786 198.209 219.449 198.209 217.736C198.209 216.011 198.632 214.641 199.479 213.625C200.331 212.609 201.474 212.102 202.906 212.102C204.247 212.102 205.309 212.544 206.09 213.43C206.871 214.309 207.262 215.471 207.262 216.916V217.941H199.889C199.921 219.198 200.237 220.152 200.836 220.803C201.441 221.454 202.291 221.779 203.385 221.779C204.537 221.779 205.676 221.538 206.803 221.057V222.502C206.23 222.749 205.686 222.925 205.172 223.029C204.664 223.14 204.049 223.195 203.326 223.195ZM202.887 213.459C202.027 213.459 201.34 213.739 200.826 214.299C200.318 214.859 200.019 215.633 199.928 216.623H205.523C205.523 215.601 205.296 214.82 204.84 214.279C204.384 213.732 203.733 213.459 202.887 213.459ZM214.312 223.195C212.763 223.195 211.562 222.72 210.709 221.77C209.863 220.812 209.439 219.462 209.439 217.717C209.439 215.926 209.869 214.543 210.729 213.566C211.594 212.59 212.825 212.102 214.42 212.102C214.934 212.102 215.449 212.157 215.963 212.268C216.477 212.378 216.881 212.508 217.174 212.658L216.676 214.035C216.318 213.892 215.927 213.775 215.504 213.684C215.081 213.586 214.706 213.537 214.381 213.537C212.206 213.537 211.119 214.924 211.119 217.697C211.119 219.012 211.383 220.021 211.91 220.725C212.444 221.428 213.232 221.779 214.273 221.779C215.165 221.779 216.08 221.587 217.018 221.203V222.639C216.301 223.01 215.4 223.195 214.312 223.195ZM224.088 223.195C222.506 223.195 221.256 222.714 220.338 221.75C219.426 220.786 218.971 219.449 218.971 217.736C218.971 216.011 219.394 214.641 220.24 213.625C221.093 212.609 222.236 212.102 223.668 212.102C225.009 212.102 226.07 212.544 226.852 213.43C227.633 214.309 228.023 215.471 228.023 216.916V217.941H220.65C220.683 219.198 220.999 220.152 221.598 220.803C222.203 221.454 223.053 221.779 224.146 221.779C225.299 221.779 226.438 221.538 227.564 221.057V222.502C226.992 222.749 226.448 222.925 225.934 223.029C225.426 223.14 224.811 223.195 224.088 223.195ZM223.648 213.459C222.789 213.459 222.102 213.739 221.588 214.299C221.08 214.859 220.781 215.633 220.689 216.623H226.285C226.285 215.601 226.057 214.82 225.602 214.279C225.146 213.732 224.495 213.459 223.648 213.459Z" fill="black"/>
<line x1="29" y1="141.5" x2="238" y2="141.5" stroke="#B4ABAB" stroke-width="3"/>
<g filter="url(#filter1_d)">
<path d="M134.273 27.7727C133.97 27.4697 133.515 27.4697 133.212 27.7727C132.53 28.4545 131.47 28.4545 130.788 27.7727C130.485 27.4697 130.03 27.4697 129.727 27.7727C129.424 28.0757 129.424 28.5303 129.727 28.8333C130.333 29.4394 131.167 29.7424 132 29.7424C132.833 29.7424 133.667 29.4394 134.273 28.8333C134.576 28.5303 134.576 28.0757 134.273 27.7727ZM134.424 25.803H135.788C136.242 25.803 136.545 25.5 136.545 25.0454C136.545 24.5909 136.242 24.2878 135.788 24.2878H134.424C133.97 24.2878 133.667 24.5909 133.667 25.0454C133.667 25.5 134.045 25.803 134.424 25.803ZM130.333 25.0454C130.333 24.5909 130.03 24.2878 129.576 24.2878H128.212C127.758 24.2878 127.455 24.5909 127.455 25.0454C127.455 25.5 127.758 25.803 128.212 25.803H129.576C129.955 25.803 130.333 25.4242 130.333 25.0454Z" fill="black"/>
<path d="M148.515 41.8636C147.833 41.4848 147.152 41.1818 146.47 40.9545V35.803C146.47 35.2727 146.167 34.8182 145.712 34.5151C145.258 34.2121 144.727 34.2121 144.197 34.4394L142.682 35.197C141.849 34.0606 140.485 33.303 139.045 33.303H136.545L135.636 31.9394C137.076 31.0303 138.288 29.5151 139.121 27.697C141.242 27.3182 141.849 23.5303 140.106 22.2424C139.879 17.1667 136.697 13.7576 132 13.7576C127.303 13.7576 124.121 17.1667 123.894 22.2424C122.152 23.5303 122.758 27.3182 124.879 27.697C125.712 29.5909 126.924 31.0303 128.364 31.9394L127.379 33.3788H124.879C123.439 33.3788 122.076 34.0606 121.242 35.2727L119.727 34.5151C119.273 34.2879 118.667 34.2879 118.212 34.5909C117.758 34.8939 117.455 35.3485 117.455 35.8788V41.0303C116.773 41.2576 116.091 41.6364 115.409 41.9394C114.652 42.3182 114.121 43.0758 114.121 43.9848V48.4545C114.121 49.2879 114.576 50.0454 115.409 50.5C116.015 50.803 116.697 51.1061 117.379 51.4091H117.455V54.1364C117.455 54.7424 117.758 55.197 118.288 55.5L131.621 62.3182C131.773 62.2424 131.924 62.2424 132 62.2424C132.076 62.2424 132.227 62.2424 132.303 62.1667L145.636 55.3485C146.167 55.1212 146.47 54.5909 146.47 53.9848V51.2576C147.152 51.0303 147.833 50.6515 148.515 50.3485C149.273 49.9697 149.803 49.2121 149.803 48.303V43.8333C149.803 43 149.349 42.2424 148.515 41.8636ZM132 15.2727C135.03 15.2727 137.227 16.9394 138.136 19.6667L137.682 19.0606C137.455 18.7576 137 18.6061 136.697 18.8333C133.591 20.803 130.485 20.803 127.379 18.8333C127.076 18.6061 126.621 18.6818 126.394 19.0606L125.939 19.6667C126.773 16.9394 128.97 15.2727 132 15.2727ZM126.167 26.6364C126.015 26.3333 125.788 26.1061 125.485 26.1061C125.409 26.1061 125.409 26.1061 125.333 26.1061H125.258C125.03 26.1061 124.576 25.6515 124.5 24.8182C124.424 23.9848 124.727 23.4545 124.955 23.3788C125.182 23.303 125.258 23.2273 125.409 23L127.227 20.4242C130.485 22.2424 133.742 22.2424 136.924 20.4242L138.742 23C138.818 23.1515 138.97 23.303 139.197 23.3788C139.424 23.4545 139.727 23.9848 139.652 24.8182C139.576 25.6515 139.121 26.1061 138.894 26.1061C138.515 26.0303 138.136 26.2576 137.985 26.5606C136.849 29.5909 134.576 31.4091 132.152 31.4091C129.727 31.4091 127.303 29.6667 126.167 26.6364ZM132 33.0758C132.758 33.0758 133.515 32.9242 134.273 32.697L135.409 34.3636C135.106 35.3485 134.197 36.8636 132 37.4697C129.803 36.8636 128.818 35.3485 128.591 34.3636L129.727 32.697C130.485 32.9242 131.242 33.0758 132 33.0758ZM124.879 34.8939H127.152C127.606 36.2576 128.894 38.2273 131.697 38.9848H131.773C131.849 38.9848 131.924 38.9848 131.924 38.9848C132 38.9848 132.076 38.9848 132.076 38.9848C134.955 38.2273 136.242 36.3333 136.697 34.8939H138.97C139.879 34.8939 140.712 35.2727 141.242 35.9545L132 40.7273L122.606 35.9545C123.136 35.2727 123.97 34.8939 124.879 34.8939ZM116.167 48.9848C115.939 48.8333 115.712 48.6061 115.712 48.303V43.8333C115.712 43.5303 115.864 43.303 116.167 43.1515C117.833 42.3182 118.894 41.9394 119.955 41.8636H120.03C120.561 41.8636 120.939 42.2424 120.939 42.7727C120.939 43.303 120.485 43.6818 120.03 43.6818H119.955H119.879L118.061 44.0606C117.682 44.1364 117.379 44.5151 117.455 44.9697C117.53 45.3485 117.833 45.5758 118.212 45.5758C118.288 45.5758 118.288 45.5758 118.364 45.5758L120.03 45.197C120.561 45.197 120.939 45.5757 120.939 46.0303C120.939 46.4848 120.561 46.8636 120.03 46.9394L118.364 46.6364C117.985 46.5606 117.53 46.7879 117.455 47.2424C117.379 47.6212 117.606 48.0758 118.061 48.1515L119.879 48.5303C119.955 48.5303 119.955 48.5303 120.03 48.5303C120.333 48.5303 120.561 48.6061 120.712 48.8333C120.864 48.9848 120.939 49.2121 120.939 49.4394C120.939 49.8939 120.409 50.2727 119.879 50.2727V51.0303L119.803 50.2727C119.197 50.2727 118.591 50.1212 117.909 49.8182C117.455 49.6667 116.924 49.4394 116.167 48.9848ZM119.045 51.7121C119.349 51.7879 119.576 51.7879 119.879 51.7879H119.955C121.318 51.7879 122.455 50.803 122.53 49.5151C122.606 48.8333 122.379 48.2273 121.924 47.7727C122.303 47.3182 122.606 46.7879 122.606 46.1061C122.606 45.5 122.379 44.8939 121.924 44.4394C122.303 43.9848 122.606 43.4545 122.606 42.7727C122.606 41.4848 121.545 40.4242 120.258 40.3485H120.182C119.803 40.3485 119.5 40.3485 119.197 40.4242V35.6515L131.242 42.0151V60.197L119.045 53.9848V51.7121ZM144.955 53.9848L132.758 60.2727V42.0909L142.758 36.9394L144.955 35.803V40.5758C144.652 40.5 144.273 40.5 143.97 40.5C143.894 40.5 143.894 40.5 143.894 40.5C142.606 40.5757 141.545 41.6364 141.545 42.9242C141.545 43.5303 141.773 44.1364 142.227 44.5909C141.849 45.0454 141.545 45.5758 141.545 46.2576C141.545 46.8636 141.773 47.4697 142.227 47.9242C141.773 48.3788 141.545 49.0606 141.621 49.6667C141.697 50.9545 142.833 51.9394 144.197 51.9394H144.273C145.788 51.7121 144.424 51.7879 144.955 53.9848ZM148.288 48.3788C148.288 48.6818 148.136 48.9091 147.833 49.0606C146.697 49.6667 145.409 50.2727 144.121 50.3485C144.045 50.3485 143.97 50.3485 144.045 50.3485C143.515 50.3485 143.061 49.9697 142.985 49.5151C142.985 49.2879 143.061 49.0606 143.212 48.9091C143.364 48.6818 143.667 48.6061 143.894 48.6061C144.045 48.6061 144.045 48.6061 145.864 48.2273C146.242 48.1515 146.545 47.7727 146.47 47.3182C146.242 46.1818 144.727 47.0151 143.894 47.0909C143.364 47.0909 142.985 46.7121 142.985 46.1818C142.985 45.7273 143.364 45.3485 143.894 45.3485C144.652 45.4242 146.242 46.2576 146.47 45.1212C146.545 44.7424 146.318 44.2879 145.864 44.2121L144.121 43.7576H144.045H143.97C143.439 43.7576 143.061 43.3788 143.061 42.8485C143.061 42.3182 143.515 41.9394 143.97 41.9394H144.045C145.333 41.9394 146.697 42.6212 147.833 43.2273C148.061 43.3788 148.288 43.6061 148.288 43.9091V48.3788Z" fill="black"/>
</g>
<defs>
<filter id="filter0_dd" x="0.0223699" y="36.5205" width="259.955" height="222.955" filterUnits="userSpaceOnUse" color-interpolation-filters="sRGB">
<feFlood flood-opacity="0" result="BackgroundImageFix"/>
<feColorMatrix in="SourceAlpha" type="matrix" values="0 0 0 0 0 0 0 0 0 0 0 0 0 0 0 0 0 0 127 0" result="hardAlpha"/>
<feOffset dy="0.498136"/>
<feGaussianBlur stdDeviation="2.98882"/>
<feColorMatrix type="matrix" values="0 0 0 0 0 0 0 0 0 0 0 0 0 0 0 0 0 0 0.08 0"/>
<feBlend mode="normal" in2="BackgroundImageFix" result="effect1_dropShadow"/>
<feColorMatrix in="SourceAlpha" type="matrix" values="0 0 0 0 0 0 0 0 0 0 0 0 0 0 0 0 0 0 127 0" result="hardAlpha"/>
<feOffset/>
<feGaussianBlur stdDeviation="0.249068"/>
<feColorMatrix type="matrix" values="0 0 0 0 0 0 0 0 0 0 0 0 0 0 0 0 0 0 0.08 0"/>
<feBlend mode="normal" in2="effect1_dropShadow" result="effect2_dropShadow"/>
<feBlend mode="normal" in="SourceGraphic" in2="effect2_dropShadow" result="shape"/>
</filter>
<filter id="filter1_d" x="103" y="13" width="58" height="58" filterUnits="userSpaceOnUse" color-interpolation-filters="sRGB">
<feFlood flood-opacity="0" result="BackgroundImageFix"/>
<feColorMatrix in="SourceAlpha" type="matrix" values="0 0 0 0 0 0 0 0 0 0 0 0 0 0 0 0 0 0 127 0" result="hardAlpha"/>
<feOffset dy="4"/>
<feGaussianBlur stdDeviation="2"/>
<feColorMatrix type="matrix" values="0 0 0 0 0 0 0 0 0 0 0 0 0 0 0 0 0 0 0.05 0"/>
<feBlend mode="normal" in2="BackgroundImageFix" result="effect1_dropShadow"/>
<feBlend mode="normal" in="SourceGraphic" in2="effect1_dropShadow" result="shape"/>
</filter>
<linearGradient id="paint0_linear" x1="101.648" y1="69.8152" x2="220.292" y2="28.0416" gradientUnits="userSpaceOnUse">
<stop stop-color="#35CC79"/>
<stop offset="1" stop-color="#347D55" stop-opacity="0.65"/>
</linearGradient>
<linearGradient id="paint1_linear" x1="32.4533" y1="235.687" x2="403.703" y2="82.0512" gradientUnits="userSpaceOnUse">
<stop stop-color="#35CC79"/>
<stop offset="1" stop-color="#347D55" stop-opacity="0.65"/>
</linearGradient>
</defs>
</svg>
