<svg width="259" height="260" viewBox="0 0 259 260" fill="none" xmlns="http://www.w3.org/2000/svg">
<circle cx="131.564" cy="38.0278" r="38.0278" fill="url(#paint0_linear)"/>
<g filter="url(#filter0_dd)">
<path fill-rule="evenodd" clip-rule="evenodd" d="M92.548 54.8367C89.4774 47.8726 83.3206 42 75.7095 42H16C10.4772 42 6 46.4772 6 52V238C6 246.284 12.7157 253 21 253H238C246.284 253 253 246.284 253 238V52C253 46.4772 248.523 42 243 42H187.896C180.285 42 174.128 47.8726 171.057 54.8367C164.307 70.147 149.27 80.8017 131.803 80.8017C114.336 80.8017 99.2986 70.147 92.548 54.8367Z" fill="url(#paint1_linear)"/>
</g>
<path d="M98.1445 112H95.8008V105.564H89.2188V112H86.8848V97.7227H89.2188V103.562H95.8008V97.7227H98.1445V112ZM108.418 112L107.959 110.496H107.881C107.36 111.154 106.836 111.603 106.309 111.844C105.781 112.078 105.104 112.195 104.277 112.195C103.216 112.195 102.386 111.909 101.787 111.336C101.195 110.763 100.898 109.952 100.898 108.904C100.898 107.791 101.312 106.951 102.139 106.385C102.965 105.818 104.225 105.509 105.918 105.457L107.783 105.398V104.822C107.783 104.132 107.62 103.618 107.295 103.279C106.976 102.934 106.478 102.762 105.801 102.762C105.247 102.762 104.717 102.843 104.209 103.006C103.701 103.169 103.213 103.361 102.744 103.582L102.002 101.941C102.588 101.635 103.229 101.404 103.926 101.248C104.622 101.085 105.28 101.004 105.898 101.004C107.272 101.004 108.307 101.303 109.004 101.902C109.707 102.501 110.059 103.442 110.059 104.725V112H108.418ZM105 110.438C105.833 110.438 106.501 110.206 107.002 109.744C107.51 109.275 107.764 108.621 107.764 107.781V106.844L106.377 106.902C105.296 106.941 104.508 107.124 104.014 107.449C103.525 107.768 103.281 108.26 103.281 108.924C103.281 109.406 103.424 109.78 103.711 110.047C103.997 110.307 104.427 110.438 105 110.438ZM128.564 112H113.262V101.199H115.557V110.184H119.766V101.199H122.061V110.184H126.26V101.199H128.564V112ZM136.572 112.195C134.893 112.195 133.577 111.707 132.627 110.73C131.683 109.747 131.211 108.396 131.211 106.678C131.211 104.913 131.65 103.527 132.529 102.518C133.408 101.508 134.616 101.004 136.152 101.004C137.578 101.004 138.704 101.437 139.531 102.303C140.358 103.169 140.771 104.36 140.771 105.877V107.117H133.574C133.607 108.165 133.89 108.973 134.424 109.539C134.958 110.099 135.71 110.379 136.68 110.379C137.318 110.379 137.91 110.32 138.457 110.203C139.01 110.079 139.603 109.878 140.234 109.598V111.463C139.674 111.73 139.108 111.919 138.535 112.029C137.962 112.14 137.308 112.195 136.572 112.195ZM136.152 102.742C135.423 102.742 134.837 102.973 134.395 103.436C133.958 103.898 133.698 104.572 133.613 105.457H138.516C138.503 104.565 138.288 103.891 137.871 103.436C137.454 102.973 136.882 102.742 136.152 102.742ZM159.795 112H157.451V99.7246H151.152V112H148.818V97.7227H159.795V112ZM176.24 104.842C176.24 107.166 175.658 108.973 174.492 110.262C173.333 111.551 171.689 112.195 169.561 112.195C167.406 112.195 165.749 111.557 164.59 110.281C163.438 108.999 162.861 107.179 162.861 104.822C162.861 102.465 163.441 100.656 164.6 99.3926C165.765 98.1296 167.425 97.498 169.58 97.498C171.702 97.498 173.343 98.1393 174.502 99.4219C175.661 100.704 176.24 102.511 176.24 104.842ZM165.342 104.842C165.342 106.6 165.697 107.934 166.406 108.846C167.116 109.751 168.167 110.203 169.561 110.203C170.947 110.203 171.992 109.754 172.695 108.855C173.405 107.957 173.76 106.619 173.76 104.842C173.76 103.09 173.408 101.762 172.705 100.857C172.008 99.9525 170.967 99.5 169.58 99.5C168.18 99.5 167.122 99.9525 166.406 100.857C165.697 101.762 165.342 103.09 165.342 104.842Z" fill="black"/>
<path d="M62.709 173H61.0488V160.197H53.7148V173H52.0547V158.723H62.709V173ZM71.3809 173.195C70.6842 173.195 70.0462 173.068 69.4668 172.814C68.8939 172.554 68.4121 172.157 68.0215 171.623H67.9043C67.9824 172.248 68.0215 172.84 68.0215 173.4V177.805H66.4004V162.297H67.7188L67.9434 163.762H68.0215C68.4382 163.176 68.9232 162.753 69.4766 162.492C70.0299 162.232 70.6647 162.102 71.3809 162.102C72.8001 162.102 73.8939 162.587 74.6621 163.557C75.4368 164.527 75.8242 165.887 75.8242 167.639C75.8242 169.396 75.4303 170.764 74.6426 171.74C73.8613 172.71 72.7741 173.195 71.3809 173.195ZM71.1465 163.479C70.0527 163.479 69.2617 163.781 68.7734 164.387C68.2852 164.992 68.0345 165.956 68.0215 167.277V167.639C68.0215 169.143 68.2721 170.22 68.7734 170.871C69.2747 171.516 70.0788 171.838 71.1855 171.838C72.11 171.838 72.8327 171.464 73.3535 170.715C73.8809 169.966 74.1445 168.934 74.1445 167.619C74.1445 166.285 73.8809 165.262 73.3535 164.553C72.8327 163.837 72.097 163.479 71.1465 163.479ZM87.9043 167.639C87.9043 169.383 87.4648 170.747 86.5859 171.73C85.707 172.707 84.4928 173.195 82.9434 173.195C81.9863 173.195 81.1367 172.971 80.3945 172.521C79.6523 172.072 79.0794 171.428 78.6758 170.588C78.2721 169.748 78.0703 168.765 78.0703 167.639C78.0703 165.894 78.5065 164.536 79.3789 163.566C80.2513 162.59 81.4622 162.102 83.0117 162.102C84.5091 162.102 85.6973 162.6 86.5762 163.596C87.4616 164.592 87.9043 165.939 87.9043 167.639ZM79.75 167.639C79.75 169.006 80.0234 170.048 80.5703 170.764C81.1172 171.48 81.9212 171.838 82.9824 171.838C84.0436 171.838 84.8477 171.483 85.3945 170.773C85.9479 170.057 86.2246 169.012 86.2246 167.639C86.2246 166.278 85.9479 165.246 85.3945 164.543C84.8477 163.833 84.0371 163.479 82.9629 163.479C81.9017 163.479 81.1009 163.827 80.5605 164.523C80.0202 165.22 79.75 166.258 79.75 167.639ZM99.4375 164.982C99.4375 165.679 99.2357 166.21 98.832 166.574C98.4349 166.932 97.875 167.173 97.1523 167.297V167.385C98.0638 167.508 98.7279 167.775 99.1445 168.186C99.5677 168.596 99.7793 169.162 99.7793 169.885C99.7793 170.881 99.4115 171.649 98.6758 172.189C97.9466 172.73 96.8789 173 95.4727 173H90.7559V162.297H95.4531C98.1094 162.297 99.4375 163.192 99.4375 164.982ZM98.1582 169.777C98.1582 169.198 97.9368 168.778 97.4941 168.518C97.0579 168.251 96.332 168.117 95.3164 168.117H92.377V171.643H95.3555C97.224 171.643 98.1582 171.021 98.1582 169.777ZM97.8555 165.139C97.8555 164.618 97.6536 164.25 97.25 164.035C96.8529 163.814 96.2474 163.703 95.4336 163.703H92.377V166.721H95.1211C96.1237 166.721 96.8301 166.597 97.2402 166.35C97.6504 166.102 97.8555 165.699 97.8555 165.139ZM106.664 173.195C105.082 173.195 103.832 172.714 102.914 171.75C102.003 170.786 101.547 169.449 101.547 167.736C101.547 166.011 101.97 164.641 102.816 163.625C103.669 162.609 104.812 162.102 106.244 162.102C107.585 162.102 108.646 162.544 109.428 163.43C110.209 164.309 110.6 165.471 110.6 166.916V167.941H103.227C103.259 169.198 103.575 170.152 104.174 170.803C104.779 171.454 105.629 171.779 106.723 171.779C107.875 171.779 109.014 171.538 110.141 171.057V172.502C109.568 172.749 109.024 172.925 108.51 173.029C108.002 173.14 107.387 173.195 106.664 173.195ZM106.225 163.459C105.365 163.459 104.678 163.739 104.164 164.299C103.656 164.859 103.357 165.633 103.266 166.623H108.861C108.861 165.601 108.633 164.82 108.178 164.279C107.722 163.732 107.071 163.459 106.225 163.459ZM118.354 173.195C117.657 173.195 117.019 173.068 116.439 172.814C115.867 172.554 115.385 172.157 114.994 171.623H114.877C114.955 172.248 114.994 172.84 114.994 173.4V177.805H113.373V162.297H114.691L114.916 163.762H114.994C115.411 163.176 115.896 162.753 116.449 162.492C117.003 162.232 117.637 162.102 118.354 162.102C119.773 162.102 120.867 162.587 121.635 163.557C122.41 164.527 122.797 165.887 122.797 167.639C122.797 169.396 122.403 170.764 121.615 171.74C120.834 172.71 119.747 173.195 118.354 173.195ZM118.119 163.479C117.025 163.479 116.234 163.781 115.746 164.387C115.258 164.992 115.007 165.956 114.994 167.277V167.639C114.994 169.143 115.245 170.22 115.746 170.871C116.247 171.516 117.051 171.838 118.158 171.838C119.083 171.838 119.805 171.464 120.326 170.715C120.854 169.966 121.117 168.934 121.117 167.619C121.117 166.285 120.854 165.262 120.326 164.553C119.805 163.837 119.07 163.479 118.119 163.479ZM127.162 162.297V169.084L127.094 170.861L127.064 171.418L132.855 162.297H134.877V173H133.363V166.457L133.393 165.168L133.441 163.898L127.66 173H125.639V162.297H127.162ZM143.871 171.438L144.174 170.529L144.594 169.377L147.494 162.316H149.555V173H148.119V164.162L147.924 164.729L147.357 166.223L144.594 173H143.236L140.473 166.203C140.128 165.331 139.89 164.65 139.76 164.162V173H138.314V162.316H140.297L143.1 169.104C143.38 169.82 143.637 170.598 143.871 171.438ZM166.898 164.982C166.898 165.679 166.697 166.21 166.293 166.574C165.896 166.932 165.336 167.173 164.613 167.297V167.385C165.525 167.508 166.189 167.775 166.605 168.186C167.029 168.596 167.24 169.162 167.24 169.885C167.24 170.881 166.872 171.649 166.137 172.189C165.408 172.73 164.34 173 162.934 173H158.217V162.297H162.914C165.57 162.297 166.898 163.192 166.898 164.982ZM165.619 169.777C165.619 169.198 165.398 168.778 164.955 168.518C164.519 168.251 163.793 168.117 162.777 168.117H159.838V171.643H162.816C164.685 171.643 165.619 171.021 165.619 169.777ZM165.316 165.139C165.316 164.618 165.115 164.25 164.711 164.035C164.314 163.814 163.708 163.703 162.895 163.703H159.838V166.721H162.582C163.585 166.721 164.291 166.597 164.701 166.35C165.111 166.102 165.316 165.699 165.316 165.139ZM176.186 173L175.863 171.477H175.785C175.251 172.147 174.717 172.603 174.184 172.844C173.656 173.078 172.995 173.195 172.201 173.195C171.14 173.195 170.307 172.922 169.701 172.375C169.102 171.828 168.803 171.05 168.803 170.041C168.803 167.88 170.531 166.747 173.988 166.643L175.805 166.584V165.92C175.805 165.08 175.622 164.462 175.258 164.064C174.9 163.661 174.324 163.459 173.529 163.459C172.637 163.459 171.628 163.732 170.502 164.279L170.004 163.039C170.531 162.753 171.107 162.528 171.732 162.365C172.364 162.202 172.995 162.121 173.627 162.121C174.903 162.121 175.847 162.404 176.459 162.971C177.077 163.537 177.387 164.445 177.387 165.695V173H176.186ZM172.523 171.857C173.533 171.857 174.324 171.581 174.896 171.027C175.476 170.474 175.766 169.699 175.766 168.703V167.736L174.145 167.805C172.855 167.85 171.924 168.052 171.352 168.41C170.785 168.762 170.502 169.312 170.502 170.061C170.502 170.646 170.678 171.092 171.029 171.398C171.387 171.704 171.885 171.857 172.523 171.857ZM188.715 171.604H193.461V162.297H195.102V173H180.736V162.297H182.357V171.604H187.094V162.297H188.715V171.604ZM196.85 162.297H198.588L200.932 168.4C201.446 169.794 201.765 170.799 201.889 171.418H201.967C202.051 171.086 202.227 170.52 202.494 169.719C202.768 168.911 203.653 166.438 205.15 162.297H206.889L202.289 174.484C201.833 175.689 201.299 176.542 200.688 177.043C200.082 177.551 199.337 177.805 198.451 177.805C197.956 177.805 197.468 177.749 196.986 177.639V176.34C197.344 176.418 197.745 176.457 198.188 176.457C199.301 176.457 200.095 175.832 200.57 174.582L201.166 173.059L196.85 162.297ZM42.4453 198H40.4336L33.832 190.764V198H32.1719V183.723H33.832V190.637L40.2676 183.723H42.1719L35.8535 190.656L42.4453 198ZM54.6914 198H52.6797L46.0781 190.764V198H44.418V183.723H46.0781V190.637L52.5137 183.723H54.418L48.0996 190.656L54.6914 198ZM61.0586 198H59.3984V185.197H54.877V183.723H65.5801V185.197H61.0586V198ZM74.3105 187.297V191.779H80.3066V187.297H81.9277V198H80.3066V193.176H74.3105V198H72.6895V187.297H74.3105ZM91.9473 198L91.625 196.477H91.5469C91.013 197.147 90.4792 197.603 89.9453 197.844C89.418 198.078 88.7572 198.195 87.9629 198.195C86.9017 198.195 86.0684 197.922 85.4629 197.375C84.8639 196.828 84.5645 196.05 84.5645 195.041C84.5645 192.88 86.293 191.747 89.75 191.643L91.5664 191.584V190.92C91.5664 190.08 91.3841 189.462 91.0195 189.064C90.6615 188.661 90.0853 188.459 89.291 188.459C88.3991 188.459 87.39 188.732 86.2637 189.279L85.7656 188.039C86.293 187.753 86.8691 187.528 87.4941 187.365C88.1257 187.202 88.7572 187.121 89.3887 187.121C90.6647 187.121 91.6087 187.404 92.2207 187.971C92.8392 188.537 93.1484 189.445 93.1484 190.695V198H91.9473ZM88.2852 196.857C89.2943 196.857 90.0853 196.581 90.6582 196.027C91.2376 195.474 91.5273 194.699 91.5273 193.703V192.736L89.9062 192.805C88.6172 192.85 87.6862 193.052 87.1133 193.41C86.5469 193.762 86.2637 194.312 86.2637 195.061C86.2637 195.646 86.4395 196.092 86.791 196.398C87.1491 196.704 87.6471 196.857 88.2852 196.857ZM105.971 198.195C104.421 198.195 103.22 197.72 102.367 196.77C101.521 195.812 101.098 194.462 101.098 192.717C101.098 190.926 101.527 189.543 102.387 188.566C103.253 187.59 104.483 187.102 106.078 187.102C106.592 187.102 107.107 187.157 107.621 187.268C108.135 187.378 108.539 187.508 108.832 187.658L108.334 189.035C107.976 188.892 107.585 188.775 107.162 188.684C106.739 188.586 106.365 188.537 106.039 188.537C103.865 188.537 102.777 189.924 102.777 192.697C102.777 194.012 103.041 195.021 103.568 195.725C104.102 196.428 104.89 196.779 105.932 196.779C106.824 196.779 107.738 196.587 108.676 196.203V197.639C107.96 198.01 107.058 198.195 105.971 198.195ZM120.463 192.639C120.463 194.383 120.023 195.747 119.145 196.73C118.266 197.707 117.051 198.195 115.502 198.195C114.545 198.195 113.695 197.971 112.953 197.521C112.211 197.072 111.638 196.428 111.234 195.588C110.831 194.748 110.629 193.765 110.629 192.639C110.629 190.894 111.065 189.536 111.938 188.566C112.81 187.59 114.021 187.102 115.57 187.102C117.068 187.102 118.256 187.6 119.135 188.596C120.02 189.592 120.463 190.939 120.463 192.639ZM112.309 192.639C112.309 194.006 112.582 195.048 113.129 195.764C113.676 196.48 114.48 196.838 115.541 196.838C116.602 196.838 117.406 196.483 117.953 195.773C118.507 195.057 118.783 194.012 118.783 192.639C118.783 191.278 118.507 190.246 117.953 189.543C117.406 188.833 116.596 188.479 115.521 188.479C114.46 188.479 113.66 188.827 113.119 189.523C112.579 190.22 112.309 191.258 112.309 192.639ZM131.996 189.982C131.996 190.679 131.794 191.21 131.391 191.574C130.993 191.932 130.434 192.173 129.711 192.297V192.385C130.622 192.508 131.286 192.775 131.703 193.186C132.126 193.596 132.338 194.162 132.338 194.885C132.338 195.881 131.97 196.649 131.234 197.189C130.505 197.73 129.438 198 128.031 198H123.314V187.297H128.012C130.668 187.297 131.996 188.192 131.996 189.982ZM130.717 194.777C130.717 194.198 130.495 193.778 130.053 193.518C129.617 193.251 128.891 193.117 127.875 193.117H124.936V196.643H127.914C129.783 196.643 130.717 196.021 130.717 194.777ZM130.414 190.139C130.414 189.618 130.212 189.25 129.809 189.035C129.411 188.814 128.806 188.703 127.992 188.703H124.936V191.721H127.68C128.682 191.721 129.389 191.597 129.799 191.35C130.209 191.102 130.414 190.699 130.414 190.139ZM140.258 196.438L140.561 195.529L140.98 194.377L143.881 187.316H145.941V198H144.506V189.162L144.311 189.729L143.744 191.223L140.98 198H139.623L136.859 191.203C136.514 190.331 136.277 189.65 136.146 189.162V198H134.701V187.316H136.684L139.486 194.104C139.766 194.82 140.023 195.598 140.258 196.438ZM153.93 198.195C152.348 198.195 151.098 197.714 150.18 196.75C149.268 195.786 148.812 194.449 148.812 192.736C148.812 191.011 149.236 189.641 150.082 188.625C150.935 187.609 152.077 187.102 153.51 187.102C154.851 187.102 155.912 187.544 156.693 188.43C157.475 189.309 157.865 190.471 157.865 191.916V192.941H150.492C150.525 194.198 150.84 195.152 151.439 195.803C152.045 196.454 152.895 196.779 153.988 196.779C155.141 196.779 156.28 196.538 157.406 196.057V197.502C156.833 197.749 156.29 197.925 155.775 198.029C155.268 198.14 154.652 198.195 153.93 198.195ZM153.49 188.459C152.631 188.459 151.944 188.739 151.43 189.299C150.922 189.859 150.622 190.633 150.531 191.623H156.127C156.127 190.601 155.899 189.82 155.443 189.279C154.988 188.732 154.337 188.459 153.49 188.459ZM164.916 198.195C163.367 198.195 162.165 197.72 161.312 196.77C160.466 195.812 160.043 194.462 160.043 192.717C160.043 190.926 160.473 189.543 161.332 188.566C162.198 187.59 163.428 187.102 165.023 187.102C165.538 187.102 166.052 187.157 166.566 187.268C167.081 187.378 167.484 187.508 167.777 187.658L167.279 189.035C166.921 188.892 166.531 188.775 166.107 188.684C165.684 188.586 165.31 188.537 164.984 188.537C162.81 188.537 161.723 189.924 161.723 192.697C161.723 194.012 161.986 195.021 162.514 195.725C163.048 196.428 163.835 196.779 164.877 196.779C165.769 196.779 166.684 196.587 167.621 196.203V197.639C166.905 198.01 166.003 198.195 164.916 198.195ZM177.387 188.684H173.91V198H172.289V188.684H168.852V187.297H177.387V188.684ZM181.029 187.297V194.084L180.961 195.861L180.932 196.418L186.723 187.297H188.744V198H187.23V191.457L187.26 190.168L187.309 188.898L181.527 198H179.506V187.297H181.029ZM197.738 196.438L198.041 195.529L198.461 194.377L201.361 187.316H203.422V198H201.986V189.162L201.791 189.729L201.225 191.223L198.461 198H197.104L194.34 191.203C193.995 190.331 193.757 189.65 193.627 189.162V198H192.182V187.316H194.164L196.967 194.104C197.247 194.82 197.504 195.598 197.738 196.438ZM216.127 192.639C216.127 194.383 215.688 195.747 214.809 196.73C213.93 197.707 212.715 198.195 211.166 198.195C210.209 198.195 209.359 197.971 208.617 197.521C207.875 197.072 207.302 196.428 206.898 195.588C206.495 194.748 206.293 193.765 206.293 192.639C206.293 190.894 206.729 189.536 207.602 188.566C208.474 187.59 209.685 187.102 211.234 187.102C212.732 187.102 213.92 187.6 214.799 188.596C215.684 189.592 216.127 190.939 216.127 192.639ZM207.973 192.639C207.973 194.006 208.246 195.048 208.793 195.764C209.34 196.48 210.144 196.838 211.205 196.838C212.266 196.838 213.07 196.483 213.617 195.773C214.171 195.057 214.447 194.012 214.447 192.639C214.447 191.278 214.171 190.246 213.617 189.543C213.07 188.833 212.26 188.479 211.186 188.479C210.124 188.479 209.324 188.827 208.783 189.523C208.243 190.22 207.973 191.258 207.973 192.639ZM223.256 198.195C221.706 198.195 220.505 197.72 219.652 196.77C218.806 195.812 218.383 194.462 218.383 192.717C218.383 190.926 218.812 189.543 219.672 188.566C220.538 187.59 221.768 187.102 223.363 187.102C223.878 187.102 224.392 187.157 224.906 187.268C225.421 187.378 225.824 187.508 226.117 187.658L225.619 189.035C225.261 188.892 224.87 188.775 224.447 188.684C224.024 188.586 223.65 188.537 223.324 188.537C221.15 188.537 220.062 189.924 220.062 192.697C220.062 194.012 220.326 195.021 220.854 195.725C221.387 196.428 222.175 196.779 223.217 196.779C224.109 196.779 225.023 196.587 225.961 196.203V197.639C225.245 198.01 224.343 198.195 223.256 198.195ZM64.7012 213.684H61.2246V223H59.6035V213.684H56.166V212.297H64.7012V213.684ZM68.4414 216.721H71.7422C74.4766 216.721 75.8438 217.727 75.8438 219.738C75.8438 220.793 75.4857 221.6 74.7695 222.16C74.0599 222.72 73.0182 223 71.6445 223H66.8203V212.297H68.4414V216.721ZM68.4414 218.117V221.643H71.5664C72.4258 221.643 73.0833 221.493 73.5391 221.193C73.9948 220.894 74.2227 220.441 74.2227 219.836C74.2227 219.243 74.0111 218.811 73.5879 218.537C73.1712 218.257 72.4811 218.117 71.5176 218.117H68.4414ZM88.1289 223.195C86.5794 223.195 85.3783 222.72 84.5254 221.77C83.679 220.812 83.2559 219.462 83.2559 217.717C83.2559 215.926 83.6855 214.543 84.5449 213.566C85.4108 212.59 86.6413 212.102 88.2363 212.102C88.7507 212.102 89.265 212.157 89.7793 212.268C90.2936 212.378 90.6973 212.508 90.9902 212.658L90.4922 214.035C90.1341 213.892 89.7435 213.775 89.3203 213.684C88.8971 213.586 88.5228 213.537 88.1973 213.537C86.0228 213.537 84.9355 214.924 84.9355 217.697C84.9355 219.012 85.1992 220.021 85.7266 220.725C86.2604 221.428 87.0482 221.779 88.0898 221.779C88.9818 221.779 89.8965 221.587 90.834 221.203V222.639C90.1178 223.01 89.2161 223.195 88.1289 223.195ZM100.199 212.297V216.779H106.195V212.297H107.816V223H106.195V218.176H100.199V223H98.5781V212.297H100.199ZM117.836 223L117.514 221.477H117.436C116.902 222.147 116.368 222.603 115.834 222.844C115.307 223.078 114.646 223.195 113.852 223.195C112.79 223.195 111.957 222.922 111.352 222.375C110.753 221.828 110.453 221.05 110.453 220.041C110.453 217.88 112.182 216.747 115.639 216.643L117.455 216.584V215.92C117.455 215.08 117.273 214.462 116.908 214.064C116.55 213.661 115.974 213.459 115.18 213.459C114.288 213.459 113.279 213.732 112.152 214.279L111.654 213.039C112.182 212.753 112.758 212.528 113.383 212.365C114.014 212.202 114.646 212.121 115.277 212.121C116.553 212.121 117.497 212.404 118.109 212.971C118.728 213.537 119.037 214.445 119.037 215.695V223H117.836ZM114.174 221.857C115.183 221.857 115.974 221.581 116.547 221.027C117.126 220.474 117.416 219.699 117.416 218.703V217.736L115.795 217.805C114.506 217.85 113.575 218.052 113.002 218.41C112.436 218.762 112.152 219.312 112.152 220.061C112.152 220.646 112.328 221.092 112.68 221.398C113.038 221.704 113.536 221.857 114.174 221.857ZM130.365 221.604H135.111V212.297H136.752V223H122.387V212.297H124.008V221.604H128.744V212.297H130.365V221.604ZM141.723 212.297V219.084L141.654 220.861L141.625 221.418L147.416 212.297H149.438V223H147.924V216.457L147.953 215.168L148.002 213.898L142.221 223H140.199V212.297H141.723ZM158.432 221.438L158.734 220.529L159.154 219.377L162.055 212.316H164.115V223H162.68V214.162L162.484 214.729L161.918 216.223L159.154 223H157.797L155.033 216.203C154.688 215.331 154.451 214.65 154.32 214.162V223H152.875V212.316H154.857L157.66 219.104C157.94 219.82 158.197 220.598 158.432 221.438ZM183.676 223H182.016V210.197H174.682V223H173.021V208.723H183.676V223ZM200.004 215.842C200.004 218.127 199.424 219.924 198.266 221.232C197.113 222.541 195.508 223.195 193.451 223.195C191.348 223.195 189.724 222.554 188.578 221.271C187.439 219.982 186.869 218.166 186.869 215.822C186.869 213.498 187.442 211.698 188.588 210.422C189.734 209.139 191.361 208.498 193.471 208.498C195.521 208.498 197.123 209.149 198.275 210.451C199.428 211.753 200.004 213.55 200.004 215.842ZM188.627 215.842C188.627 217.775 189.037 219.243 189.857 220.246C190.684 221.242 191.882 221.74 193.451 221.74C195.033 221.74 196.228 221.242 197.035 220.246C197.842 219.25 198.246 217.782 198.246 215.842C198.246 213.921 197.842 212.466 197.035 211.477C196.234 210.48 195.046 209.982 193.471 209.982C191.889 209.982 190.684 210.484 189.857 211.486C189.037 212.482 188.627 213.934 188.627 215.842Z" fill="black"/>
<line x1="29" y1="141.5" x2="238" y2="141.5" stroke="#B4ABAB" stroke-width="3"/>
<path d="M148.186 22.2778C149.147 22.2778 149.98 22.6636 150.686 23.4352C151.393 24.2068 151.746 25.1173 151.746 26.1667V49.8704C151.746 50.9815 151.393 51.9229 150.686 52.6945C149.98 53.4661 149.147 53.8519 148.186 53.8519H135.475V57.8334H139.119V61.7223H124.627V57.8334H128.271V53.8519H115.644C114.627 53.8519 113.766 53.4661 113.059 52.6945C112.353 51.9229 112 50.9815 112 49.8704V26.1667C112 25.1173 112.353 24.2068 113.059 23.4352C113.766 22.6636 114.627 22.2778 115.644 22.2778H148.186ZM148.186 49.8704V26.1667H115.644V49.8704H148.186Z" fill="black"/>
<defs>
<filter id="filter0_dd" x="0.0223699" y="36.5205" width="258.955" height="222.955" filterUnits="userSpaceOnUse" color-interpolation-filters="sRGB">
<feFlood flood-opacity="0" result="BackgroundImageFix"/>
<feColorMatrix in="SourceAlpha" type="matrix" values="0 0 0 0 0 0 0 0 0 0 0 0 0 0 0 0 0 0 127 0" result="hardAlpha"/>
<feOffset dy="0.498136"/>
<feGaussianBlur stdDeviation="2.98882"/>
<feColorMatrix type="matrix" values="0 0 0 0 0 0 0 0 0 0 0 0 0 0 0 0 0 0 0.08 0"/>
<feBlend mode="normal" in2="BackgroundImageFix" result="effect1_dropShadow"/>
<feColorMatrix in="SourceAlpha" type="matrix" values="0 0 0 0 0 0 0 0 0 0 0 0 0 0 0 0 0 0 127 0" result="hardAlpha"/>
<feOffset/>
<feGaussianBlur stdDeviation="0.249068"/>
<feColorMatrix type="matrix" values="0 0 0 0 0 0 0 0 0 0 0 0 0 0 0 0 0 0 0.08 0"/>
<feBlend mode="normal" in2="effect1_dropShadow" result="effect2_dropShadow"/>
<feBlend mode="normal" in="SourceGraphic" in2="effect2_dropShadow" result="shape"/>
</filter>
<linearGradient id="paint0_linear" x1="101.648" y1="69.8152" x2="220.292" y2="28.0416" gradientUnits="userSpaceOnUse">
<stop stop-color="#35CC79"/>
<stop offset="1" stop-color="#347D55" stop-opacity="0.65"/>
</linearGradient>
<linearGradient id="paint1_linear" x1="32.3467" y1="235.687" x2="402.535" y2="83.1081" gradientUnits="userSpaceOnUse">
<stop stop-color="#35CC79"/>
<stop offset="1" stop-color="#347D55" stop-opacity="0.65"/>
</linearGradient>
</defs>
</svg>
