<svg width="260" height="260" viewBox="0 0 260 260" fill="none" xmlns="http://www.w3.org/2000/svg">
<circle cx="131.564" cy="38.0278" r="38.0278" fill="url(#paint0_linear)"/>
<g filter="url(#filter0_dd)">
<path fill-rule="evenodd" clip-rule="evenodd" d="M92.548 54.8367C89.4774 47.8726 83.3206 42 75.7095 42H16C10.4772 42 6 46.4772 6 52V238C6 246.284 12.7157 253 21 253H239C247.284 253 254 246.284 254 238V52C254 46.4772 249.523 42 244 42H187.896C180.285 42 174.128 47.8726 171.057 54.8367C164.307 70.147 149.27 80.8017 131.803 80.8017C114.336 80.8017 99.2986 70.147 92.548 54.8367Z" fill="url(#paint1_linear)"/>
</g>
<path d="M37.3379 102.039C37.3379 103.53 36.8496 104.673 35.873 105.467C34.8965 106.261 33.5065 106.658 31.7031 106.658H30.2188V112H27.8848V97.7227H31.9961C33.7799 97.7227 35.1146 98.0872 36 98.8164C36.8919 99.5456 37.3379 100.62 37.3379 102.039ZM30.2188 104.695H31.459C32.6569 104.695 33.5358 104.487 34.0957 104.07C34.6556 103.654 34.9355 103.003 34.9355 102.117C34.9355 101.297 34.6849 100.685 34.1836 100.281C33.6823 99.8776 32.901 99.6758 31.8398 99.6758H30.2188V104.695ZM44.6621 112.195C42.9824 112.195 41.6673 111.707 40.7168 110.73C39.7728 109.747 39.3008 108.396 39.3008 106.678C39.3008 104.913 39.7402 103.527 40.6191 102.518C41.498 101.508 42.7057 101.004 44.2422 101.004C45.668 101.004 46.7943 101.437 47.6211 102.303C48.4479 103.169 48.8613 104.36 48.8613 105.877V107.117H41.6641C41.6966 108.165 41.9798 108.973 42.5137 109.539C43.0475 110.099 43.7995 110.379 44.7695 110.379C45.4076 110.379 46 110.32 46.5469 110.203C47.1003 110.079 47.6927 109.878 48.3242 109.598V111.463C47.7643 111.73 47.1979 111.919 46.625 112.029C46.0521 112.14 45.3978 112.195 44.6621 112.195ZM44.2422 102.742C43.513 102.742 42.9271 102.973 42.4844 103.436C42.0482 103.898 41.7878 104.572 41.7031 105.457H46.6055C46.5924 104.565 46.3776 103.891 45.9609 103.436C45.5443 102.973 44.9714 102.742 44.2422 102.742ZM66.7715 112H51.4688V101.199H53.7637V110.184H57.9727V101.199H60.2676V110.184H64.4668V101.199H66.7715V112ZM74.7793 112.195C73.0996 112.195 71.7845 111.707 70.834 110.73C69.89 109.747 69.418 108.396 69.418 106.678C69.418 104.913 69.8574 103.527 70.7363 102.518C71.6152 101.508 72.8229 101.004 74.3594 101.004C75.7852 101.004 76.9115 101.437 77.7383 102.303C78.5651 103.169 78.9785 104.36 78.9785 105.877V107.117H71.7812C71.8138 108.165 72.097 108.973 72.6309 109.539C73.1647 110.099 73.9167 110.379 74.8867 110.379C75.5247 110.379 76.1172 110.32 76.6641 110.203C77.2174 110.079 77.8099 109.878 78.4414 109.598V111.463C77.8815 111.73 77.3151 111.919 76.7422 112.029C76.1693 112.14 75.515 112.195 74.7793 112.195ZM74.3594 102.742C73.6302 102.742 73.0443 102.973 72.6016 103.436C72.1654 103.898 71.9049 104.572 71.8203 105.457H76.7227C76.7096 104.565 76.4948 103.891 76.0781 103.436C75.6615 102.973 75.0885 102.742 74.3594 102.742ZM83.8809 101.199V105.535H88.9688V101.199H91.2637V112H88.9688V107.342H83.8809V112H81.5859V101.199H83.8809ZM96.752 101.199V106.736C96.752 107.381 96.6999 108.328 96.5957 109.578L102.016 101.199H104.818V112H102.611V106.561C102.611 106.261 102.628 105.776 102.66 105.105C102.699 104.435 102.732 103.947 102.758 103.641L97.3574 112H94.5547V101.199H96.752ZM112.807 112.195C111.127 112.195 109.812 111.707 108.861 110.73C107.917 109.747 107.445 108.396 107.445 106.678C107.445 104.913 107.885 103.527 108.764 102.518C109.643 101.508 110.85 101.004 112.387 101.004C113.812 101.004 114.939 101.437 115.766 102.303C116.592 103.169 117.006 104.36 117.006 105.877V107.117H109.809C109.841 108.165 110.124 108.973 110.658 109.539C111.192 110.099 111.944 110.379 112.914 110.379C113.552 110.379 114.145 110.32 114.691 110.203C115.245 110.079 115.837 109.878 116.469 109.598V111.463C115.909 111.73 115.342 111.919 114.77 112.029C114.197 112.14 113.542 112.195 112.807 112.195ZM112.387 102.742C111.658 102.742 111.072 102.973 110.629 103.436C110.193 103.898 109.932 104.572 109.848 105.457H114.75C114.737 104.565 114.522 103.891 114.105 103.436C113.689 102.973 113.116 102.742 112.387 102.742ZM127.006 101.199V106.736C127.006 107.381 126.954 108.328 126.85 109.578L132.27 101.199H135.072V112H132.865V106.561C132.865 106.261 132.882 105.776 132.914 105.105C132.953 104.435 132.986 103.947 133.012 103.641L127.611 112H124.809V101.199H127.006ZM140.727 105.516C141.775 105.516 142.546 105.402 143.041 105.174C143.536 104.939 143.783 104.581 143.783 104.1C143.783 103.221 143.002 102.781 141.439 102.781C140.398 102.781 139.333 103.016 138.246 103.484L137.504 101.775C138.76 101.261 140.147 101.004 141.664 101.004C143.005 101.004 144.047 101.251 144.789 101.746C145.531 102.234 145.902 102.938 145.902 103.855C145.902 105.066 145.209 105.861 143.822 106.238V106.316C144.688 106.551 145.307 106.886 145.678 107.322C146.055 107.758 146.244 108.299 146.244 108.943C146.244 109.933 145.808 110.724 144.936 111.316C144.07 111.902 142.859 112.195 141.303 112.195C139.604 112.195 138.305 111.971 137.406 111.521V109.539C138.598 110.099 139.831 110.379 141.107 110.379C142.025 110.379 142.732 110.252 143.227 109.998C143.728 109.738 143.979 109.344 143.979 108.816C143.979 108.276 143.728 107.879 143.227 107.625C142.725 107.371 141.951 107.244 140.902 107.244H139.584V105.516H140.727ZM160.629 101.199H163.148L158.686 106.404L163.529 112H160.893L156.225 106.521V112H153.93V101.199H156.225V106.443L160.629 101.199ZM174.896 106.58C174.896 108.344 174.444 109.721 173.539 110.711C172.634 111.701 171.374 112.195 169.76 112.195C168.751 112.195 167.859 111.967 167.084 111.512C166.309 111.056 165.714 110.402 165.297 109.549C164.88 108.696 164.672 107.706 164.672 106.58C164.672 104.829 165.121 103.462 166.02 102.479C166.918 101.495 168.184 101.004 169.818 101.004C171.381 101.004 172.618 101.508 173.529 102.518C174.441 103.52 174.896 104.874 174.896 106.58ZM167.035 106.58C167.035 109.074 167.956 110.32 169.799 110.32C171.622 110.32 172.533 109.074 172.533 106.58C172.533 104.113 171.615 102.879 169.779 102.879C168.816 102.879 168.116 103.198 167.68 103.836C167.25 104.474 167.035 105.389 167.035 106.58ZM183.021 112.195C181.654 112.195 180.593 111.704 179.838 110.721H179.701C179.792 111.632 179.838 112.186 179.838 112.381V116.805H177.543V101.199H179.398C179.451 101.401 179.558 101.883 179.721 102.645H179.838C180.554 101.551 181.628 101.004 183.061 101.004C184.408 101.004 185.456 101.492 186.205 102.469C186.96 103.445 187.338 104.816 187.338 106.58C187.338 108.344 186.954 109.721 186.186 110.711C185.424 111.701 184.369 112.195 183.021 112.195ZM182.465 102.879C181.553 102.879 180.886 103.146 180.463 103.68C180.046 104.214 179.838 105.066 179.838 106.238V106.58C179.838 107.895 180.046 108.849 180.463 109.441C180.88 110.027 181.56 110.32 182.504 110.32C183.298 110.32 183.91 109.995 184.34 109.344C184.77 108.693 184.984 107.765 184.984 106.561C184.984 105.35 184.77 104.435 184.34 103.816C183.917 103.191 183.292 102.879 182.465 102.879ZM199.584 106.58C199.584 108.344 199.132 109.721 198.227 110.711C197.322 111.701 196.062 112.195 194.447 112.195C193.438 112.195 192.546 111.967 191.771 111.512C190.997 111.056 190.401 110.402 189.984 109.549C189.568 108.696 189.359 107.706 189.359 106.58C189.359 104.829 189.809 103.462 190.707 102.479C191.605 101.495 192.872 101.004 194.506 101.004C196.068 101.004 197.305 101.508 198.217 102.518C199.128 103.52 199.584 104.874 199.584 106.58ZM191.723 106.58C191.723 109.074 192.644 110.32 194.486 110.32C196.309 110.32 197.221 109.074 197.221 106.58C197.221 104.113 196.303 102.879 194.467 102.879C193.503 102.879 192.803 103.198 192.367 103.836C191.938 104.474 191.723 105.389 191.723 106.58ZM201.605 105.516C201.605 103.107 202.012 101.255 202.826 99.959C203.646 98.6634 204.949 97.8301 206.732 97.459C208.08 97.1855 209.633 96.9186 211.391 96.6582L211.713 98.6797C209.577 99.0052 208.015 99.2591 207.025 99.4414C206.003 99.6302 205.264 100.05 204.809 100.701C204.359 101.352 204.099 102.332 204.027 103.641H204.174C204.545 103.1 205.03 102.684 205.629 102.391C206.228 102.091 206.869 101.941 207.553 101.941C208.881 101.941 209.916 102.361 210.658 103.201C211.4 104.041 211.771 105.219 211.771 106.736C211.771 108.475 211.319 109.819 210.414 110.77C209.516 111.72 208.269 112.195 206.674 112.195C205.092 112.195 203.852 111.609 202.953 110.438C202.055 109.266 201.605 107.625 201.605 105.516ZM206.83 110.32C208.536 110.32 209.389 109.201 209.389 106.961C209.389 104.799 208.617 103.719 207.074 103.719C206.651 103.719 206.241 103.81 205.844 103.992C205.447 104.174 205.079 104.415 204.74 104.715C204.408 105.014 204.151 105.324 203.969 105.643C203.969 107.179 204.213 108.344 204.701 109.139C205.189 109.926 205.899 110.32 206.83 110.32ZM221.117 101.199H223.637L219.174 106.404L224.018 112H221.381L216.713 106.521V112H214.418V101.199H216.713V106.443L221.117 101.199ZM228.002 101.199V106.736C228.002 107.381 227.95 108.328 227.846 109.578L233.266 101.199H236.068V112H233.861V106.561C233.861 106.261 233.878 105.776 233.91 105.105C233.949 104.435 233.982 103.947 234.008 103.641L228.607 112H225.805V101.199H228.002Z" fill="black"/>
<path d="M47.4668 176.721H45.8848V173H35.9629V176.721H34.3809V171.496H35.4844C36.487 169.81 37.3431 167.759 38.0527 165.344C38.7689 162.928 39.166 160.721 39.2441 158.723H45.6602V171.496H47.4668V176.721ZM44 171.496V160.217H40.748C40.6309 161.792 40.237 163.687 39.5664 165.9C38.8958 168.107 38.1146 169.973 37.2227 171.496H44ZM58.873 167.639C58.873 169.383 58.4336 170.747 57.5547 171.73C56.6758 172.707 55.4616 173.195 53.9121 173.195C52.9551 173.195 52.1055 172.971 51.3633 172.521C50.6211 172.072 50.0482 171.428 49.6445 170.588C49.2409 169.748 49.0391 168.765 49.0391 167.639C49.0391 165.894 49.4753 164.536 50.3477 163.566C51.2201 162.59 52.431 162.102 53.9805 162.102C55.4779 162.102 56.666 162.6 57.5449 163.596C58.4303 164.592 58.873 165.939 58.873 167.639ZM50.7188 167.639C50.7188 169.006 50.9922 170.048 51.5391 170.764C52.0859 171.48 52.89 171.838 53.9512 171.838C55.0124 171.838 55.8164 171.483 56.3633 170.773C56.9167 170.057 57.1934 169.012 57.1934 167.639C57.1934 166.278 56.9167 165.246 56.3633 164.543C55.8164 163.833 55.0059 163.479 53.9316 163.479C52.8704 163.479 52.0697 163.827 51.5293 164.523C50.9889 165.22 50.7188 166.258 50.7188 167.639ZM66.002 173.195C64.4525 173.195 63.2513 172.72 62.3984 171.77C61.5521 170.812 61.1289 169.462 61.1289 167.717C61.1289 165.926 61.5586 164.543 62.418 163.566C63.2839 162.59 64.5143 162.102 66.1094 162.102C66.6237 162.102 67.138 162.157 67.6523 162.268C68.1667 162.378 68.5703 162.508 68.8633 162.658L68.3652 164.035C68.0072 163.892 67.6165 163.775 67.1934 163.684C66.7702 163.586 66.3958 163.537 66.0703 163.537C63.8958 163.537 62.8086 164.924 62.8086 167.697C62.8086 169.012 63.0723 170.021 63.5996 170.725C64.1335 171.428 64.9212 171.779 65.9629 171.779C66.8548 171.779 67.7695 171.587 68.707 171.203V172.639C67.9909 173.01 67.0892 173.195 66.002 173.195ZM78.4727 163.684H74.9961V173H73.375V163.684H69.9375V162.297H78.4727V163.684ZM87.1738 173L86.8516 171.477H86.7734C86.2396 172.147 85.7057 172.603 85.1719 172.844C84.6445 173.078 83.9837 173.195 83.1895 173.195C82.1283 173.195 81.2949 172.922 80.6895 172.375C80.0905 171.828 79.791 171.05 79.791 170.041C79.791 167.88 81.5195 166.747 84.9766 166.643L86.793 166.584V165.92C86.793 165.08 86.6107 164.462 86.2461 164.064C85.888 163.661 85.3118 163.459 84.5176 163.459C83.6257 163.459 82.6165 163.732 81.4902 164.279L80.9922 163.039C81.5195 162.753 82.0957 162.528 82.7207 162.365C83.3522 162.202 83.9837 162.121 84.6152 162.121C85.8913 162.121 86.8353 162.404 87.4473 162.971C88.0658 163.537 88.375 164.445 88.375 165.695V173H87.1738ZM83.5117 171.857C84.5208 171.857 85.3118 171.581 85.8848 171.027C86.4642 170.474 86.7539 169.699 86.7539 168.703V167.736L85.1328 167.805C83.8438 167.85 82.9128 168.052 82.3398 168.41C81.7734 168.762 81.4902 169.312 81.4902 170.061C81.4902 170.646 81.666 171.092 82.0176 171.398C82.3757 171.704 82.8737 171.857 83.5117 171.857ZM93.3457 162.297V166.779H99.3418V162.297H100.963V173H99.3418V168.176H93.3457V173H91.7246V162.297H93.3457ZM106.021 166.721H109.322C112.057 166.721 113.424 167.727 113.424 169.738C113.424 170.793 113.066 171.6 112.35 172.16C111.64 172.72 110.598 173 109.225 173H104.4V162.297H106.021V166.721ZM106.021 168.117V171.643H109.146C110.006 171.643 110.663 171.493 111.119 171.193C111.575 170.894 111.803 170.441 111.803 169.836C111.803 169.243 111.591 168.811 111.168 168.537C110.751 168.257 110.061 168.117 109.098 168.117H106.021ZM117.936 170.676L118.082 170.9C117.913 171.551 117.669 172.307 117.35 173.166C117.031 174.032 116.699 174.836 116.354 175.578H115.133C115.309 174.901 115.501 174.064 115.709 173.068C115.924 172.072 116.074 171.275 116.158 170.676H117.936ZM127.955 173H126.334V162.297H135.318V173H133.678V163.703H127.955V173ZM147.994 167.639C147.994 169.383 147.555 170.747 146.676 171.73C145.797 172.707 144.583 173.195 143.033 173.195C142.076 173.195 141.227 172.971 140.484 172.521C139.742 172.072 139.169 171.428 138.766 170.588C138.362 169.748 138.16 168.765 138.16 167.639C138.16 165.894 138.596 164.536 139.469 163.566C140.341 162.59 141.552 162.102 143.102 162.102C144.599 162.102 145.787 162.6 146.666 163.596C147.551 164.592 147.994 165.939 147.994 167.639ZM139.84 167.639C139.84 169.006 140.113 170.048 140.66 170.764C141.207 171.48 142.011 171.838 143.072 171.838C144.133 171.838 144.938 171.483 145.484 170.773C146.038 170.057 146.314 169.012 146.314 167.639C146.314 166.278 146.038 165.246 145.484 164.543C144.938 163.833 144.127 163.479 143.053 163.479C141.992 163.479 141.191 163.827 140.65 164.523C140.11 165.22 139.84 166.258 139.84 167.639ZM160.143 176.701H158.57V173H151.09V176.701H149.527V171.604H150.367C151.24 170.419 151.923 169.029 152.418 167.434C152.913 165.839 153.17 164.126 153.189 162.297H158.609V171.604H160.143V176.701ZM157.047 171.604V163.576H154.645C154.56 165.021 154.28 166.486 153.805 167.971C153.336 169.449 152.75 170.66 152.047 171.604H157.047ZM168.531 162.297H170.309L165.689 167.463L170.689 173H168.795L163.912 167.58V173H162.291V162.297H163.912V167.502L168.531 162.297ZM180.66 173H179.02V163.684H175.807C175.631 166.001 175.387 167.84 175.074 169.201C174.762 170.562 174.355 171.558 173.854 172.189C173.359 172.821 172.727 173.137 171.959 173.137C171.607 173.137 171.327 173.098 171.119 173.02V171.818C171.262 171.857 171.425 171.877 171.607 171.877C172.356 171.877 172.952 171.086 173.395 169.504C173.837 167.922 174.173 165.52 174.4 162.297H180.66V173ZM197.887 167.639C197.887 169.39 197.467 170.754 196.627 171.73C195.794 172.707 194.648 173.195 193.189 173.195C191.803 173.195 190.702 172.762 189.889 171.896C189.075 171.024 188.622 169.784 188.531 168.176H185.729V173H184.107V162.297H185.729V166.779H188.551C188.681 165.295 189.156 164.146 189.977 163.332C190.797 162.512 191.881 162.102 193.229 162.102C194.661 162.102 195.794 162.6 196.627 163.596C197.467 164.585 197.887 165.933 197.887 167.639ZM190.211 167.639C190.211 169.012 190.449 170.057 190.924 170.773C191.399 171.483 192.161 171.838 193.209 171.838C194.238 171.838 194.993 171.493 195.475 170.803C195.963 170.106 196.207 169.051 196.207 167.639C196.207 166.271 195.969 165.236 195.494 164.533C195.019 163.83 194.257 163.479 193.209 163.479C192.161 163.479 191.399 163.83 190.924 164.533C190.449 165.236 190.211 166.271 190.211 167.639ZM202.154 162.297V166.203C202.154 167.453 202.867 168.078 204.293 168.078C204.885 168.078 205.452 167.987 205.992 167.805C206.533 167.622 207.145 167.313 207.828 166.877V162.297H209.449V173H207.828V168.156C207.145 168.625 206.51 168.957 205.924 169.152C205.344 169.341 204.687 169.436 203.951 169.436C202.883 169.436 202.047 169.156 201.441 168.596C200.836 168.036 200.533 167.277 200.533 166.32V162.297H202.154ZM214.42 162.297V169.084L214.352 170.861L214.322 171.418L220.113 162.297H222.135V173H220.621V166.457L220.65 165.168L220.699 163.898L214.918 173H212.896V162.297H214.42ZM227.271 170.676L227.418 170.9C227.249 171.551 227.005 172.307 226.686 173.166C226.367 174.032 226.035 174.836 225.689 175.578H224.469C224.645 174.901 224.837 174.064 225.045 173.068C225.26 172.072 225.41 171.275 225.494 170.676H227.271ZM97.916 198.195C97.2194 198.195 96.5814 198.068 96.002 197.814C95.429 197.554 94.9473 197.157 94.5566 196.623H94.4395C94.5176 197.248 94.5566 197.84 94.5566 198.4V202.805H92.9355V187.297H94.2539L94.4785 188.762H94.5566C94.9733 188.176 95.4583 187.753 96.0117 187.492C96.5651 187.232 97.1999 187.102 97.916 187.102C99.3353 187.102 100.429 187.587 101.197 188.557C101.972 189.527 102.359 190.887 102.359 192.639C102.359 194.396 101.965 195.764 101.178 196.74C100.396 197.71 99.3092 198.195 97.916 198.195ZM97.6816 188.479C96.5879 188.479 95.7969 188.781 95.3086 189.387C94.8203 189.992 94.5697 190.956 94.5566 192.277V192.639C94.5566 194.143 94.8073 195.22 95.3086 195.871C95.8099 196.516 96.6139 196.838 97.7207 196.838C98.6452 196.838 99.3678 196.464 99.8887 195.715C100.416 194.966 100.68 193.934 100.68 192.619C100.68 191.285 100.416 190.262 99.8887 189.553C99.3678 188.837 98.6322 188.479 97.6816 188.479ZM111.783 198L111.461 196.477H111.383C110.849 197.147 110.315 197.603 109.781 197.844C109.254 198.078 108.593 198.195 107.799 198.195C106.738 198.195 105.904 197.922 105.299 197.375C104.7 196.828 104.4 196.05 104.4 195.041C104.4 192.88 106.129 191.747 109.586 191.643L111.402 191.584V190.92C111.402 190.08 111.22 189.462 110.855 189.064C110.497 188.661 109.921 188.459 109.127 188.459C108.235 188.459 107.226 188.732 106.1 189.279L105.602 188.039C106.129 187.753 106.705 187.528 107.33 187.365C107.962 187.202 108.593 187.121 109.225 187.121C110.501 187.121 111.445 187.404 112.057 187.971C112.675 188.537 112.984 189.445 112.984 190.695V198H111.783ZM108.121 196.857C109.13 196.857 109.921 196.581 110.494 196.027C111.074 195.474 111.363 194.699 111.363 193.703V192.736L109.742 192.805C108.453 192.85 107.522 193.052 106.949 193.41C106.383 193.762 106.1 194.312 106.1 195.061C106.1 195.646 106.275 196.092 106.627 196.398C106.985 196.704 107.483 196.857 108.121 196.857ZM115.777 191.584C115.777 189.24 116.122 187.414 116.812 186.105C117.503 184.79 118.596 183.97 120.094 183.645C121.956 183.247 123.596 182.925 125.016 182.678L125.318 184.104C123.059 184.481 121.445 184.781 120.475 185.002C119.531 185.217 118.821 185.725 118.346 186.525C117.877 187.326 117.62 188.417 117.574 189.797H117.691C118.095 189.25 118.616 188.82 119.254 188.508C119.892 188.195 120.559 188.039 121.256 188.039C122.571 188.039 123.596 188.465 124.332 189.318C125.068 190.171 125.436 191.353 125.436 192.863C125.436 194.536 125.009 195.845 124.156 196.789C123.303 197.727 122.115 198.195 120.592 198.195C119.088 198.195 117.91 197.619 117.057 196.467C116.204 195.314 115.777 193.687 115.777 191.584ZM120.738 196.838C122.724 196.838 123.717 195.572 123.717 193.039C123.717 190.624 122.815 189.416 121.012 189.416C120.517 189.416 120.038 189.52 119.576 189.729C119.12 189.93 118.701 190.201 118.316 190.539C117.939 190.878 117.646 191.226 117.438 191.584C117.438 193.296 117.708 194.602 118.248 195.5C118.788 196.392 119.618 196.838 120.738 196.838ZM137.506 192.639C137.506 194.383 137.066 195.747 136.188 196.73C135.309 197.707 134.094 198.195 132.545 198.195C131.588 198.195 130.738 197.971 129.996 197.521C129.254 197.072 128.681 196.428 128.277 195.588C127.874 194.748 127.672 193.765 127.672 192.639C127.672 190.894 128.108 189.536 128.98 188.566C129.853 187.59 131.064 187.102 132.613 187.102C134.111 187.102 135.299 187.6 136.178 188.596C137.063 189.592 137.506 190.939 137.506 192.639ZM129.352 192.639C129.352 194.006 129.625 195.048 130.172 195.764C130.719 196.48 131.523 196.838 132.584 196.838C133.645 196.838 134.449 196.483 134.996 195.773C135.549 195.057 135.826 194.012 135.826 192.639C135.826 191.278 135.549 190.246 134.996 189.543C134.449 188.833 133.639 188.479 132.564 188.479C131.503 188.479 130.702 188.827 130.162 189.523C129.622 190.22 129.352 191.258 129.352 192.639ZM147.574 188.684H144.098V198H142.477V188.684H139.039V187.297H147.574V188.684ZM156.275 198L155.953 196.477H155.875C155.341 197.147 154.807 197.603 154.273 197.844C153.746 198.078 153.085 198.195 152.291 198.195C151.23 198.195 150.396 197.922 149.791 197.375C149.192 196.828 148.893 196.05 148.893 195.041C148.893 192.88 150.621 191.747 154.078 191.643L155.895 191.584V190.92C155.895 190.08 155.712 189.462 155.348 189.064C154.99 188.661 154.413 188.459 153.619 188.459C152.727 188.459 151.718 188.732 150.592 189.279L150.094 188.039C150.621 187.753 151.197 187.528 151.822 187.365C152.454 187.202 153.085 187.121 153.717 187.121C154.993 187.121 155.937 187.404 156.549 187.971C157.167 188.537 157.477 189.445 157.477 190.695V198H156.275ZM152.613 196.857C153.622 196.857 154.413 196.581 154.986 196.027C155.566 195.474 155.855 194.699 155.855 193.703V192.736L154.234 192.805C152.945 192.85 152.014 193.052 151.441 193.41C150.875 193.762 150.592 194.312 150.592 195.061C150.592 195.646 150.768 196.092 151.119 196.398C151.477 196.704 151.975 196.857 152.613 196.857ZM162.35 187.297V194.084L162.281 195.861L162.252 196.418L168.043 187.297H170.064V198H168.551V191.457L168.58 190.168L168.629 188.898L162.848 198H160.826V187.297H162.35ZM165.406 185.881C164.202 185.881 163.323 185.65 162.77 185.188C162.216 184.719 161.907 183.951 161.842 182.883H163.365C163.424 183.56 163.6 184.032 163.893 184.299C164.192 184.566 164.71 184.699 165.445 184.699C166.116 184.699 166.611 184.556 166.93 184.27C167.255 183.983 167.454 183.521 167.525 182.883H169.059C168.98 183.911 168.652 184.67 168.072 185.158C167.493 185.64 166.604 185.881 165.406 185.881Z" fill="black"/>
<line x1="29" y1="141.5" x2="238" y2="141.5" stroke="#B4ABAB" stroke-width="3"/>
<path d="M132.581 16.1901C132.208 16.0428 131.792 16.0428 131.419 16.1901L112.769 23.5385L132 31.1148L151.231 23.5385L132.581 16.1901ZM153.875 25.8136L133.562 33.8177V58.2057L153.875 50.2015V25.8166V25.8136ZM130.438 58.2088V33.8146L110.125 25.8136V50.2046L130.438 58.2088ZM130.259 13.3302C131.377 12.8899 132.623 12.8899 133.741 13.3302L156.019 22.1101C156.308 22.2245 156.557 22.4216 156.732 22.6762C156.906 22.9308 157 23.2311 157 23.5385V50.2046C157 50.8198 156.812 51.4207 156.462 51.9299C156.111 52.4391 155.614 52.8333 155.034 53.0615L132.581 61.9091C132.208 62.0564 131.792 62.0564 131.419 61.9091L108.969 53.0615C108.388 52.8338 107.89 52.4398 107.54 51.9306C107.189 51.4213 107.001 50.8201 107 50.2046V23.5385C107 23.2311 107.094 22.9308 107.268 22.6762C107.443 22.4216 107.692 22.2245 107.981 22.1101L130.259 13.3302Z" fill="black"/>
<defs>
<filter id="filter0_dd" x="0.0223699" y="36.5205" width="259.955" height="222.955" filterUnits="userSpaceOnUse" color-interpolation-filters="sRGB">
<feFlood flood-opacity="0" result="BackgroundImageFix"/>
<feColorMatrix in="SourceAlpha" type="matrix" values="0 0 0 0 0 0 0 0 0 0 0 0 0 0 0 0 0 0 127 0" result="hardAlpha"/>
<feOffset dy="0.498136"/>
<feGaussianBlur stdDeviation="2.98882"/>
<feColorMatrix type="matrix" values="0 0 0 0 0 0 0 0 0 0 0 0 0 0 0 0 0 0 0.08 0"/>
<feBlend mode="normal" in2="BackgroundImageFix" result="effect1_dropShadow"/>
<feColorMatrix in="SourceAlpha" type="matrix" values="0 0 0 0 0 0 0 0 0 0 0 0 0 0 0 0 0 0 127 0" result="hardAlpha"/>
<feOffset/>
<feGaussianBlur stdDeviation="0.249068"/>
<feColorMatrix type="matrix" values="0 0 0 0 0 0 0 0 0 0 0 0 0 0 0 0 0 0 0.08 0"/>
<feBlend mode="normal" in2="effect1_dropShadow" result="effect2_dropShadow"/>
<feBlend mode="normal" in="SourceGraphic" in2="effect2_dropShadow" result="shape"/>
</filter>
<linearGradient id="paint0_linear" x1="101.648" y1="69.8152" x2="220.292" y2="28.0416" gradientUnits="userSpaceOnUse">
<stop stop-color="#35CC79"/>
<stop offset="1" stop-color="#347D55" stop-opacity="0.65"/>
</linearGradient>
<linearGradient id="paint1_linear" x1="32.4533" y1="235.687" x2="403.703" y2="82.0512" gradientUnits="userSpaceOnUse">
<stop stop-color="#35CC79"/>
<stop offset="1" stop-color="#347D55" stop-opacity="0.65"/>
</linearGradient>
</defs>
</svg>
