<svg width="261" height="260" viewBox="0 0 261 260" fill="none" xmlns="http://www.w3.org/2000/svg">
<circle cx="131.564" cy="38.0278" r="38.0278" fill="url(#paint0_linear)"/>
<g filter="url(#filter0_dd)">
<path fill-rule="evenodd" clip-rule="evenodd" d="M92.548 54.8367C89.4774 47.8726 83.3206 42 75.7095 42H16C10.4772 42 6 46.4772 6 52V238C6 246.284 12.7157 253 21 253H240C248.284 253 255 246.284 255 238V52C255 46.4772 250.523 42 245 42H187.896C180.285 42 174.128 47.8726 171.057 54.8367C164.307 70.147 149.27 80.8017 131.803 80.8017C114.336 80.8017 99.2986 70.147 92.548 54.8367Z" fill="url(#paint1_linear)"/>
</g>
<path d="M89.2363 93.5195C87.8952 93.5195 86.8405 93.9948 86.0723 94.9453C85.304 95.8958 84.9199 97.2077 84.9199 98.8809C84.9199 100.632 85.2878 101.957 86.0234 102.855C86.7656 103.754 87.8366 104.203 89.2363 104.203C89.8418 104.203 90.4277 104.145 90.9941 104.027C91.5605 103.904 92.1497 103.747 92.7617 103.559V105.561C91.6419 105.984 90.3724 106.195 88.9531 106.195C86.8633 106.195 85.2585 105.564 84.1387 104.301C83.0189 103.031 82.459 101.218 82.459 98.8613C82.459 97.377 82.7292 96.0781 83.2695 94.9648C83.8164 93.8516 84.6042 92.9987 85.6328 92.4062C86.6615 91.8138 87.8691 91.5176 89.2559 91.5176C90.7142 91.5176 92.0618 91.8236 93.2988 92.4355L92.459 94.3789C91.9772 94.151 91.4661 93.9525 90.9258 93.7832C90.3919 93.6074 89.8288 93.5195 89.2363 93.5195ZM105.213 104.223H106.775V109.799H104.617V106H95.5938V95.1992H97.8887V104.184H102.918V95.1992H105.213V104.223ZM113.455 106.195C111.775 106.195 110.46 105.707 109.51 104.73C108.566 103.747 108.094 102.396 108.094 100.678C108.094 98.9134 108.533 97.5267 109.412 96.5176C110.291 95.5085 111.499 95.0039 113.035 95.0039C114.461 95.0039 115.587 95.4368 116.414 96.3027C117.241 97.1686 117.654 98.36 117.654 99.877V101.117H110.457C110.49 102.165 110.773 102.973 111.307 103.539C111.84 104.099 112.592 104.379 113.562 104.379C114.201 104.379 114.793 104.32 115.34 104.203C115.893 104.079 116.486 103.878 117.117 103.598V105.463C116.557 105.73 115.991 105.919 115.418 106.029C114.845 106.14 114.191 106.195 113.455 106.195ZM113.035 96.7422C112.306 96.7422 111.72 96.9733 111.277 97.4355C110.841 97.8978 110.581 98.5716 110.496 99.457H115.398C115.385 98.5651 115.171 97.8913 114.754 97.4355C114.337 96.9733 113.764 96.7422 113.035 96.7422ZM122.557 95.1992V99.5352H127.645V95.1992H129.939V106H127.645V101.342H122.557V106H120.262V95.1992H122.557ZM139.988 106L139.529 104.496H139.451C138.93 105.154 138.406 105.603 137.879 105.844C137.352 106.078 136.674 106.195 135.848 106.195C134.786 106.195 133.956 105.909 133.357 105.336C132.765 104.763 132.469 103.952 132.469 102.904C132.469 101.791 132.882 100.951 133.709 100.385C134.536 99.8184 135.796 99.5091 137.488 99.457L139.354 99.3984V98.8223C139.354 98.1322 139.191 97.6178 138.865 97.2793C138.546 96.9342 138.048 96.7617 137.371 96.7617C136.818 96.7617 136.287 96.8431 135.779 97.0059C135.271 97.1686 134.783 97.3607 134.314 97.582L133.572 95.9414C134.158 95.6354 134.799 95.4043 135.496 95.248C136.193 95.0853 136.85 95.0039 137.469 95.0039C138.842 95.0039 139.878 95.3034 140.574 95.9023C141.277 96.5013 141.629 97.4421 141.629 98.7246V106H139.988ZM136.57 104.438C137.404 104.438 138.071 104.206 138.572 103.744C139.08 103.275 139.334 102.621 139.334 101.781V100.844L137.947 100.902C136.867 100.941 136.079 101.124 135.584 101.449C135.096 101.768 134.852 102.26 134.852 102.924C134.852 103.406 134.995 103.78 135.281 104.047C135.568 104.307 135.997 104.438 136.57 104.438ZM150.311 106.195C148.943 106.195 147.882 105.704 147.127 104.721H146.99C147.081 105.632 147.127 106.186 147.127 106.381V110.805H144.832V95.1992H146.688C146.74 95.401 146.847 95.8828 147.01 96.6445H147.127C147.843 95.5508 148.917 95.0039 150.35 95.0039C151.697 95.0039 152.745 95.4922 153.494 96.4688C154.249 97.4453 154.627 98.8158 154.627 100.58C154.627 102.344 154.243 103.721 153.475 104.711C152.713 105.701 151.658 106.195 150.311 106.195ZM149.754 96.8789C148.842 96.8789 148.175 97.1458 147.752 97.6797C147.335 98.2135 147.127 99.0664 147.127 100.238V100.58C147.127 101.895 147.335 102.849 147.752 103.441C148.169 104.027 148.849 104.32 149.793 104.32C150.587 104.32 151.199 103.995 151.629 103.344C152.059 102.693 152.273 101.765 152.273 100.561C152.273 99.3496 152.059 98.4349 151.629 97.8164C151.206 97.1914 150.581 96.8789 149.754 96.8789ZM159.49 95.1992V100.736C159.49 101.381 159.438 102.328 159.334 103.578L164.754 95.1992H167.557V106H165.35V100.561C165.35 100.261 165.366 99.776 165.398 99.1055C165.438 98.4349 165.47 97.9466 165.496 97.6406L160.096 106H157.293V95.1992H159.49ZM173.025 95.1992V100.736C173.025 101.381 172.973 102.328 172.869 103.578L178.289 95.1992H181.092V106H178.885V100.561C178.885 100.261 178.901 99.776 178.934 99.1055C178.973 98.4349 179.005 97.9466 179.031 97.6406L173.631 106H170.828V95.1992H173.025ZM58.0645 120.521L61.541 116.303L63.1816 117.221L60.4277 120.639L63.1816 124.037L61.541 124.984L58.0645 120.775V120.521ZM62.459 120.521L65.9453 116.303L67.5859 117.221L64.8223 120.639L67.5859 124.037L65.9453 124.984L62.459 120.775V120.521ZM79.9395 121.703C79.9395 124.568 78.1035 126 74.4316 126H70.2812V111.723H78.9922V113.725H72.6152V117.523H74.3145C78.0645 117.523 79.9395 118.917 79.9395 121.703ZM72.6152 124.037H74.2949C75.4147 124.037 76.235 123.855 76.7559 123.49C77.2767 123.119 77.5371 122.523 77.5371 121.703C77.5371 120.915 77.2734 120.349 76.7461 120.004C76.2253 119.652 75.3138 119.477 74.0117 119.477H72.6152V124.037ZM84.7344 115.199V120.736C84.7344 121.381 84.6823 122.328 84.5781 123.578L89.998 115.199H92.8008V126H90.5938V120.561C90.5938 120.261 90.61 119.776 90.6426 119.105C90.6816 118.435 90.7142 117.947 90.7402 117.641L85.3398 126H82.5371V115.199H84.7344ZM98.4551 119.516C99.5033 119.516 100.275 119.402 100.77 119.174C101.264 118.939 101.512 118.581 101.512 118.1C101.512 117.221 100.73 116.781 99.168 116.781C98.1263 116.781 97.0618 117.016 95.9746 117.484L95.2324 115.775C96.4889 115.261 97.8757 115.004 99.3926 115.004C100.734 115.004 101.775 115.251 102.518 115.746C103.26 116.234 103.631 116.938 103.631 117.855C103.631 119.066 102.938 119.861 101.551 120.238V120.316C102.417 120.551 103.035 120.886 103.406 121.322C103.784 121.758 103.973 122.299 103.973 122.943C103.973 123.933 103.536 124.724 102.664 125.316C101.798 125.902 100.587 126.195 99.0312 126.195C97.332 126.195 96.0332 125.971 95.1348 125.521V123.539C96.3262 124.099 97.5599 124.379 98.8359 124.379C99.7539 124.379 100.46 124.252 100.955 123.998C101.456 123.738 101.707 123.344 101.707 122.816C101.707 122.276 101.456 121.879 100.955 121.625C100.454 121.371 99.679 121.244 98.6309 121.244H97.3125V119.516H98.4551ZM108.758 115.199V119.535H113.846V115.199H116.141V126H113.846V121.342H108.758V126H106.463V115.199H108.758ZM124.148 126.195C122.469 126.195 121.154 125.707 120.203 124.73C119.259 123.747 118.787 122.396 118.787 120.678C118.787 118.913 119.227 117.527 120.105 116.518C120.984 115.508 122.192 115.004 123.729 115.004C125.154 115.004 126.281 115.437 127.107 116.303C127.934 117.169 128.348 118.36 128.348 119.877V121.117H121.15C121.183 122.165 121.466 122.973 122 123.539C122.534 124.099 123.286 124.379 124.256 124.379C124.894 124.379 125.486 124.32 126.033 124.203C126.587 124.079 127.179 123.878 127.811 123.598V125.463C127.251 125.73 126.684 125.919 126.111 126.029C125.538 126.14 124.884 126.195 124.148 126.195ZM123.729 116.742C122.999 116.742 122.413 116.973 121.971 117.436C121.535 117.898 121.274 118.572 121.189 119.457H126.092C126.079 118.565 125.864 117.891 125.447 117.436C125.031 116.973 124.458 116.742 123.729 116.742ZM135.311 126.195C133.676 126.195 132.433 125.72 131.58 124.77C130.734 123.812 130.311 122.442 130.311 120.658C130.311 118.842 130.753 117.445 131.639 116.469C132.531 115.492 133.816 115.004 135.496 115.004C136.635 115.004 137.661 115.215 138.572 115.639L137.879 117.484C136.909 117.107 136.108 116.918 135.477 116.918C133.608 116.918 132.674 118.158 132.674 120.639C132.674 121.85 132.905 122.761 133.367 123.373C133.836 123.979 134.52 124.281 135.418 124.281C136.44 124.281 137.407 124.027 138.318 123.52V125.521C137.908 125.762 137.469 125.935 137 126.039C136.538 126.143 135.975 126.195 135.311 126.195ZM151.531 126.195C150.164 126.195 149.103 125.704 148.348 124.721H148.211C148.302 125.632 148.348 126.186 148.348 126.381V130.805H146.053V115.199H147.908C147.96 115.401 148.068 115.883 148.23 116.645H148.348C149.064 115.551 150.138 115.004 151.57 115.004C152.918 115.004 153.966 115.492 154.715 116.469C155.47 117.445 155.848 118.816 155.848 120.58C155.848 122.344 155.464 123.721 154.695 124.711C153.934 125.701 152.879 126.195 151.531 126.195ZM150.975 116.879C150.063 116.879 149.396 117.146 148.973 117.68C148.556 118.214 148.348 119.066 148.348 120.238V120.58C148.348 121.895 148.556 122.849 148.973 123.441C149.389 124.027 150.07 124.32 151.014 124.32C151.808 124.32 152.42 123.995 152.85 123.344C153.279 122.693 153.494 121.765 153.494 120.561C153.494 119.35 153.279 118.435 152.85 117.816C152.426 117.191 151.801 116.879 150.975 116.879ZM168.094 120.58C168.094 122.344 167.641 123.721 166.736 124.711C165.831 125.701 164.572 126.195 162.957 126.195C161.948 126.195 161.056 125.967 160.281 125.512C159.507 125.056 158.911 124.402 158.494 123.549C158.077 122.696 157.869 121.706 157.869 120.58C157.869 118.829 158.318 117.462 159.217 116.479C160.115 115.495 161.382 115.004 163.016 115.004C164.578 115.004 165.815 115.508 166.727 116.518C167.638 117.52 168.094 118.874 168.094 120.58ZM160.232 120.58C160.232 123.074 161.154 124.32 162.996 124.32C164.819 124.32 165.73 123.074 165.73 120.58C165.73 118.113 164.812 116.879 162.977 116.879C162.013 116.879 161.313 117.198 160.877 117.836C160.447 118.474 160.232 119.389 160.232 120.58ZM175.096 126.195C173.462 126.195 172.218 125.72 171.365 124.77C170.519 123.812 170.096 122.442 170.096 120.658C170.096 118.842 170.538 117.445 171.424 116.469C172.316 115.492 173.602 115.004 175.281 115.004C176.421 115.004 177.446 115.215 178.357 115.639L177.664 117.484C176.694 117.107 175.893 116.918 175.262 116.918C173.393 116.918 172.459 118.158 172.459 120.639C172.459 121.85 172.69 122.761 173.152 123.373C173.621 123.979 174.305 124.281 175.203 124.281C176.225 124.281 177.192 124.027 178.104 123.52V125.521C177.693 125.762 177.254 125.935 176.785 126.039C176.323 126.143 175.76 126.195 175.096 126.195ZM188.758 115.199V116.996H185.242V126H182.938V116.996H179.422V115.199H188.758ZM197.596 126L197.137 124.496H197.059C196.538 125.154 196.014 125.603 195.486 125.844C194.959 126.078 194.282 126.195 193.455 126.195C192.394 126.195 191.564 125.909 190.965 125.336C190.372 124.763 190.076 123.952 190.076 122.904C190.076 121.791 190.49 120.951 191.316 120.385C192.143 119.818 193.403 119.509 195.096 119.457L196.961 119.398V118.822C196.961 118.132 196.798 117.618 196.473 117.279C196.154 116.934 195.656 116.762 194.979 116.762C194.425 116.762 193.895 116.843 193.387 117.006C192.879 117.169 192.391 117.361 191.922 117.582L191.18 115.941C191.766 115.635 192.407 115.404 193.104 115.248C193.8 115.085 194.458 115.004 195.076 115.004C196.45 115.004 197.485 115.303 198.182 115.902C198.885 116.501 199.236 117.442 199.236 118.725V126H197.596ZM194.178 124.438C195.011 124.438 195.678 124.206 196.18 123.744C196.688 123.275 196.941 122.621 196.941 121.781V120.844L195.555 120.902C194.474 120.941 193.686 121.124 193.191 121.449C192.703 121.768 192.459 122.26 192.459 122.924C192.459 123.406 192.602 123.78 192.889 124.047C193.175 124.307 193.605 124.438 194.178 124.438ZM211.121 120.775L207.615 124.984L205.975 124.037L208.738 120.639L205.975 117.221L207.615 116.303L211.121 120.521V120.775ZM206.717 120.775L203.221 124.984L201.58 124.037L204.334 120.639L201.58 117.221L203.221 116.303L206.717 120.521V120.775Z" fill="black"/>
<path d="M29.6719 158.723H33.7051C35.5996 158.723 36.9701 159.006 37.8164 159.572C38.6628 160.139 39.0859 161.034 39.0859 162.258C39.0859 163.104 38.8483 163.804 38.373 164.357C37.9043 164.904 37.2174 165.259 36.3125 165.422V165.52C38.4805 165.891 39.5645 167.03 39.5645 168.938C39.5645 170.214 39.1315 171.21 38.2656 171.926C37.4062 172.642 36.2018 173 34.6523 173H29.6719V158.723ZM31.332 164.836H34.0664C35.2383 164.836 36.0814 164.654 36.5957 164.289C37.11 163.918 37.3672 163.296 37.3672 162.424C37.3672 161.623 37.0807 161.047 36.5078 160.695C35.9349 160.337 35.0234 160.158 33.7734 160.158H31.332V164.836ZM31.332 166.242V171.584H34.3105C35.4629 171.584 36.3288 171.363 36.9082 170.92C37.4941 170.471 37.7871 169.771 37.7871 168.82C37.7871 167.935 37.4876 167.284 36.8887 166.867C36.2962 166.451 35.3913 166.242 34.1738 166.242H31.332ZM44.0176 166.721H46.9375C48.2982 166.721 49.304 166.975 49.9551 167.482C50.6126 167.984 50.9414 168.736 50.9414 169.738C50.9414 170.812 50.5931 171.626 49.8965 172.18C49.2064 172.727 48.1875 173 46.8398 173H42.3965V162.297H44.0176V166.721ZM54.3594 173H52.7383V162.297H54.3594V173ZM44.0176 168.117V171.643H46.7617C48.4805 171.643 49.3398 171.04 49.3398 169.836C49.3398 169.237 49.1413 168.801 48.7441 168.527C48.347 168.254 47.6699 168.117 46.7129 168.117H44.0176ZM57.25 166.584C57.25 164.24 57.5951 162.414 58.2852 161.105C58.9753 159.79 60.069 158.97 61.5664 158.645C63.4284 158.247 65.069 157.925 66.4883 157.678L66.791 159.104C64.5319 159.481 62.9173 159.781 61.9473 160.002C61.0033 160.217 60.2936 160.725 59.8184 161.525C59.3496 162.326 59.0924 163.417 59.0469 164.797H59.1641C59.5677 164.25 60.0885 163.82 60.7266 163.508C61.3646 163.195 62.0319 163.039 62.7285 163.039C64.0436 163.039 65.069 163.465 65.8047 164.318C66.5404 165.171 66.9082 166.353 66.9082 167.863C66.9082 169.536 66.4818 170.845 65.6289 171.789C64.776 172.727 63.5879 173.195 62.0645 173.195C60.5605 173.195 59.3822 172.619 58.5293 171.467C57.6764 170.314 57.25 168.687 57.25 166.584ZM62.2109 171.838C64.1966 171.838 65.1895 170.572 65.1895 168.039C65.1895 165.624 64.2878 164.416 62.4844 164.416C61.9896 164.416 61.5111 164.52 61.0488 164.729C60.5931 164.93 60.1732 165.201 59.7891 165.539C59.4115 165.878 59.1185 166.226 58.9102 166.584C58.9102 168.296 59.1803 169.602 59.7207 170.5C60.2611 171.392 61.0911 171.838 62.2109 171.838ZM74.2617 173.195C72.6797 173.195 71.4297 172.714 70.5117 171.75C69.6003 170.786 69.1445 169.449 69.1445 167.736C69.1445 166.011 69.5677 164.641 70.4141 163.625C71.2669 162.609 72.4095 162.102 73.8418 162.102C75.1829 162.102 76.2441 162.544 77.0254 163.43C77.8066 164.309 78.1973 165.471 78.1973 166.916V167.941H70.8242C70.8568 169.198 71.1725 170.152 71.7715 170.803C72.377 171.454 73.2266 171.779 74.3203 171.779C75.4727 171.779 76.612 171.538 77.7383 171.057V172.502C77.1654 172.749 76.6217 172.925 76.1074 173.029C75.5996 173.14 74.9844 173.195 74.2617 173.195ZM73.8223 163.459C72.9629 163.459 72.276 163.739 71.7617 164.299C71.2539 164.859 70.9544 165.633 70.8633 166.623H76.459C76.459 165.601 76.2311 164.82 75.7754 164.279C75.3197 163.732 74.6686 163.459 73.8223 163.459ZM85.9512 173.195C85.2546 173.195 84.6165 173.068 84.0371 172.814C83.4642 172.554 82.9824 172.157 82.5918 171.623H82.4746C82.5527 172.248 82.5918 172.84 82.5918 173.4V177.805H80.9707V162.297H82.2891L82.5137 163.762H82.5918C83.0085 163.176 83.4935 162.753 84.0469 162.492C84.6003 162.232 85.235 162.102 85.9512 162.102C87.3704 162.102 88.4642 162.587 89.2324 163.557C90.0072 164.527 90.3945 165.887 90.3945 167.639C90.3945 169.396 90.0007 170.764 89.2129 171.74C88.4316 172.71 87.3444 173.195 85.9512 173.195ZM85.7168 163.479C84.623 163.479 83.832 163.781 83.3438 164.387C82.8555 164.992 82.6048 165.956 82.5918 167.277V167.639C82.5918 169.143 82.8424 170.22 83.3438 170.871C83.8451 171.516 84.6491 171.838 85.7559 171.838C86.6803 171.838 87.403 171.464 87.9238 170.715C88.4512 169.966 88.7148 168.934 88.7148 167.619C88.7148 166.285 88.4512 165.262 87.9238 164.553C87.403 163.837 86.6673 163.479 85.7168 163.479ZM94.7598 162.297V169.084L94.6914 170.861L94.6621 171.418L100.453 162.297H102.475V173H100.961V166.457L100.99 165.168L101.039 163.898L95.2578 173H93.2363V162.297H94.7598ZM115.385 173.195C113.835 173.195 112.634 172.72 111.781 171.77C110.935 170.812 110.512 169.462 110.512 167.717C110.512 165.926 110.941 164.543 111.801 163.566C112.667 162.59 113.897 162.102 115.492 162.102C116.007 162.102 116.521 162.157 117.035 162.268C117.549 162.378 117.953 162.508 118.246 162.658L117.748 164.035C117.39 163.892 116.999 163.775 116.576 163.684C116.153 163.586 115.779 163.537 115.453 163.537C113.279 163.537 112.191 164.924 112.191 167.697C112.191 169.012 112.455 170.021 112.982 170.725C113.516 171.428 114.304 171.779 115.346 171.779C116.238 171.779 117.152 171.587 118.09 171.203V172.639C117.374 173.01 116.472 173.195 115.385 173.195ZM131.078 176.701H129.457V173H120.639V162.297H122.26V171.604H127.943V162.297H129.564V171.604H131.078V176.701ZM137.68 173.195C136.098 173.195 134.848 172.714 133.93 171.75C133.018 170.786 132.562 169.449 132.562 167.736C132.562 166.011 132.986 164.641 133.832 163.625C134.685 162.609 135.827 162.102 137.26 162.102C138.601 162.102 139.662 162.544 140.443 163.43C141.225 164.309 141.615 165.471 141.615 166.916V167.941H134.242C134.275 169.198 134.59 170.152 135.189 170.803C135.795 171.454 136.645 171.779 137.738 171.779C138.891 171.779 140.03 171.538 141.156 171.057V172.502C140.583 172.749 140.04 172.925 139.525 173.029C139.018 173.14 138.402 173.195 137.68 173.195ZM137.24 163.459C136.381 163.459 135.694 163.739 135.18 164.299C134.672 164.859 134.372 165.633 134.281 166.623H139.877C139.877 165.601 139.649 164.82 139.193 164.279C138.738 163.732 138.087 163.459 137.24 163.459ZM146.01 162.297V166.779H152.006V162.297H153.627V173H152.006V168.176H146.01V173H144.389V162.297H146.01ZM163.646 173L163.324 171.477H163.246C162.712 172.147 162.178 172.603 161.645 172.844C161.117 173.078 160.456 173.195 159.662 173.195C158.601 173.195 157.768 172.922 157.162 172.375C156.563 171.828 156.264 171.05 156.264 170.041C156.264 167.88 157.992 166.747 161.449 166.643L163.266 166.584V165.92C163.266 165.08 163.083 164.462 162.719 164.064C162.361 163.661 161.785 163.459 160.99 163.459C160.098 163.459 159.089 163.732 157.963 164.279L157.465 163.039C157.992 162.753 158.568 162.528 159.193 162.365C159.825 162.202 160.456 162.121 161.088 162.121C162.364 162.121 163.308 162.404 163.92 162.971C164.538 163.537 164.848 164.445 164.848 165.695V173H163.646ZM159.984 171.857C160.993 171.857 161.785 171.581 162.357 171.027C162.937 170.474 163.227 169.699 163.227 168.703V167.736L161.605 167.805C160.316 167.85 159.385 168.052 158.812 168.41C158.246 168.762 157.963 169.312 157.963 170.061C157.963 170.646 158.139 171.092 158.49 171.398C158.848 171.704 159.346 171.857 159.984 171.857ZM173.178 173.195C172.481 173.195 171.843 173.068 171.264 172.814C170.691 172.554 170.209 172.157 169.818 171.623H169.701C169.779 172.248 169.818 172.84 169.818 173.4V177.805H168.197V162.297H169.516L169.74 163.762H169.818C170.235 163.176 170.72 162.753 171.273 162.492C171.827 162.232 172.462 162.102 173.178 162.102C174.597 162.102 175.691 162.587 176.459 163.557C177.234 164.527 177.621 165.887 177.621 167.639C177.621 169.396 177.227 170.764 176.439 171.74C175.658 172.71 174.571 173.195 173.178 173.195ZM172.943 163.479C171.85 163.479 171.059 163.781 170.57 164.387C170.082 164.992 169.831 165.956 169.818 167.277V167.639C169.818 169.143 170.069 170.22 170.57 170.871C171.072 171.516 171.876 171.838 172.982 171.838C173.907 171.838 174.63 171.464 175.15 170.715C175.678 169.966 175.941 168.934 175.941 167.619C175.941 166.285 175.678 165.262 175.15 164.553C174.63 163.837 173.894 163.479 172.943 163.479ZM181.986 162.297V169.084L181.918 170.861L181.889 171.418L187.68 162.297H189.701V173H188.188V166.457L188.217 165.168L188.266 163.898L182.484 173H180.463V162.297H181.986ZM194.662 162.297V169.084L194.594 170.861L194.564 171.418L200.355 162.297H202.377V173H200.863V166.457L200.893 165.168L200.941 163.898L195.16 173H193.139V162.297H194.662ZM197.719 160.881C196.514 160.881 195.635 160.65 195.082 160.188C194.529 159.719 194.219 158.951 194.154 157.883H195.678C195.736 158.56 195.912 159.032 196.205 159.299C196.505 159.566 197.022 159.699 197.758 159.699C198.428 159.699 198.923 159.556 199.242 159.27C199.568 158.983 199.766 158.521 199.838 157.883H201.371C201.293 158.911 200.964 159.67 200.385 160.158C199.805 160.64 198.917 160.881 197.719 160.881ZM210.092 168.381V166.896H228.49V168.381H210.092ZM35.4238 198H33.8027V187.297H42.7871V198H41.1465V188.703H35.4238V198ZM55.4629 192.639C55.4629 194.383 55.0234 195.747 54.1445 196.73C53.2656 197.707 52.0514 198.195 50.502 198.195C49.5449 198.195 48.6953 197.971 47.9531 197.521C47.2109 197.072 46.638 196.428 46.2344 195.588C45.8307 194.748 45.6289 193.765 45.6289 192.639C45.6289 190.894 46.0651 189.536 46.9375 188.566C47.8099 187.59 49.0208 187.102 50.5703 187.102C52.0677 187.102 53.2559 187.6 54.1348 188.596C55.0202 189.592 55.4629 190.939 55.4629 192.639ZM47.3086 192.639C47.3086 194.006 47.582 195.048 48.1289 195.764C48.6758 196.48 49.4798 196.838 50.541 196.838C51.6022 196.838 52.4062 196.483 52.9531 195.773C53.5065 195.057 53.7832 194.012 53.7832 192.639C53.7832 191.278 53.5065 190.246 52.9531 189.543C52.4062 188.833 51.5957 188.479 50.5215 188.479C49.4603 188.479 48.6595 188.827 48.1191 189.523C47.5788 190.22 47.3086 191.258 47.3086 192.639ZM66.293 198H64.6523V188.684H61.4395C61.2637 191.001 61.0195 192.84 60.707 194.201C60.3945 195.562 59.9876 196.558 59.4863 197.189C58.9915 197.821 58.36 198.137 57.5918 198.137C57.2402 198.137 56.9603 198.098 56.752 198.02V196.818C56.8952 196.857 57.0579 196.877 57.2402 196.877C57.9889 196.877 58.5846 196.086 59.0273 194.504C59.4701 192.922 59.8053 190.52 60.0332 187.297H66.293V198ZM68.041 187.297H69.7793L72.123 193.4C72.6374 194.794 72.9564 195.799 73.0801 196.418H73.1582C73.2428 196.086 73.4186 195.52 73.6855 194.719C73.959 193.911 74.8444 191.438 76.3418 187.297H78.0801L73.4805 199.484C73.0247 200.689 72.4909 201.542 71.8789 202.043C71.2734 202.551 70.528 202.805 69.6426 202.805C69.1478 202.805 68.6595 202.749 68.1777 202.639V201.34C68.5358 201.418 68.9362 201.457 69.3789 201.457C70.4922 201.457 71.2865 200.832 71.7617 199.582L72.3574 198.059L68.041 187.297ZM81.2441 187.297V191.203C81.2441 192.453 81.957 193.078 83.3828 193.078C83.9753 193.078 84.5417 192.987 85.082 192.805C85.6224 192.622 86.2344 192.313 86.918 191.877V187.297H88.5391V198H86.918V193.156C86.2344 193.625 85.5996 193.957 85.0137 194.152C84.4342 194.341 83.7767 194.436 83.041 194.436C81.9733 194.436 81.1367 194.156 80.5312 193.596C79.9258 193.036 79.623 192.277 79.623 191.32V187.297H81.2441ZM93.5098 187.297V194.084L93.4414 195.861L93.4121 196.418L99.2031 187.297H101.225V198H99.7109V191.457L99.7402 190.168L99.7891 188.898L94.0078 198H91.9863V187.297H93.5098ZM114.838 198.195C114.141 198.195 113.503 198.068 112.924 197.814C112.351 197.554 111.869 197.157 111.479 196.623H111.361C111.439 197.248 111.479 197.84 111.479 198.4V202.805H109.857V187.297H111.176L111.4 188.762H111.479C111.895 188.176 112.38 187.753 112.934 187.492C113.487 187.232 114.122 187.102 114.838 187.102C116.257 187.102 117.351 187.587 118.119 188.557C118.894 189.527 119.281 190.887 119.281 192.639C119.281 194.396 118.887 195.764 118.1 196.74C117.318 197.71 116.231 198.195 114.838 198.195ZM114.604 188.479C113.51 188.479 112.719 188.781 112.23 189.387C111.742 189.992 111.492 190.956 111.479 192.277V192.639C111.479 194.143 111.729 195.22 112.23 195.871C112.732 196.516 113.536 196.838 114.643 196.838C115.567 196.838 116.29 196.464 116.811 195.715C117.338 194.966 117.602 193.934 117.602 192.619C117.602 191.285 117.338 190.262 116.811 189.553C116.29 188.837 115.554 188.479 114.604 188.479ZM131.361 192.639C131.361 194.383 130.922 195.747 130.043 196.73C129.164 197.707 127.95 198.195 126.4 198.195C125.443 198.195 124.594 197.971 123.852 197.521C123.109 197.072 122.536 196.428 122.133 195.588C121.729 194.748 121.527 193.765 121.527 192.639C121.527 190.894 121.964 189.536 122.836 188.566C123.708 187.59 124.919 187.102 126.469 187.102C127.966 187.102 129.154 187.6 130.033 188.596C130.919 189.592 131.361 190.939 131.361 192.639ZM123.207 192.639C123.207 194.006 123.48 195.048 124.027 195.764C124.574 196.48 125.378 196.838 126.439 196.838C127.501 196.838 128.305 196.483 128.852 195.773C129.405 195.057 129.682 194.012 129.682 192.639C129.682 191.278 129.405 190.246 128.852 189.543C128.305 188.833 127.494 188.479 126.42 188.479C125.359 188.479 124.558 188.827 124.018 189.523C123.477 190.22 123.207 191.258 123.207 192.639ZM138.49 198.195C136.941 198.195 135.74 197.72 134.887 196.77C134.04 195.812 133.617 194.462 133.617 192.717C133.617 190.926 134.047 189.543 134.906 188.566C135.772 187.59 137.003 187.102 138.598 187.102C139.112 187.102 139.626 187.157 140.141 187.268C140.655 187.378 141.059 187.508 141.352 187.658L140.854 189.035C140.495 188.892 140.105 188.775 139.682 188.684C139.258 188.586 138.884 188.537 138.559 188.537C136.384 188.537 135.297 189.924 135.297 192.697C135.297 194.012 135.561 195.021 136.088 195.725C136.622 196.428 137.41 196.779 138.451 196.779C139.343 196.779 140.258 196.587 141.195 196.203V197.639C140.479 198.01 139.577 198.195 138.49 198.195ZM150.961 188.684H147.484V198H145.863V188.684H142.426V187.297H150.961V188.684ZM159.896 187.297V191.779H165.893V187.297H167.514V198H165.893V193.176H159.896V198H158.275V187.297H159.896ZM177.533 198L177.211 196.477H177.133C176.599 197.147 176.065 197.603 175.531 197.844C175.004 198.078 174.343 198.195 173.549 198.195C172.488 198.195 171.654 197.922 171.049 197.375C170.45 196.828 170.15 196.05 170.15 195.041C170.15 192.88 171.879 191.747 175.336 191.643L177.152 191.584V190.92C177.152 190.08 176.97 189.462 176.605 189.064C176.247 188.661 175.671 188.459 174.877 188.459C173.985 188.459 172.976 188.732 171.85 189.279L171.352 188.039C171.879 187.753 172.455 187.528 173.08 187.365C173.712 187.202 174.343 187.121 174.975 187.121C176.251 187.121 177.195 187.404 177.807 187.971C178.425 188.537 178.734 189.445 178.734 190.695V198H177.533ZM173.871 196.857C174.88 196.857 175.671 196.581 176.244 196.027C176.824 195.474 177.113 194.699 177.113 193.703V192.736L175.492 192.805C174.203 192.85 173.272 193.052 172.699 193.41C172.133 193.762 171.85 194.312 171.85 195.061C171.85 195.646 172.025 196.092 172.377 196.398C172.735 196.704 173.233 196.857 173.871 196.857ZM195.385 187.082C195.385 187.993 195.128 188.739 194.613 189.318C194.105 189.898 193.383 190.285 192.445 190.48V190.559C193.591 190.702 194.441 191.066 194.994 191.652C195.548 192.238 195.824 193.007 195.824 193.957C195.824 195.318 195.352 196.366 194.408 197.102C193.464 197.831 192.123 198.195 190.385 198.195C189.63 198.195 188.936 198.137 188.305 198.02C187.68 197.909 187.071 197.71 186.479 197.424V195.881C187.097 196.187 187.755 196.421 188.451 196.584C189.154 196.74 189.818 196.818 190.443 196.818C192.911 196.818 194.145 195.852 194.145 193.918C194.145 192.186 192.784 191.32 190.062 191.32H188.656V189.924H190.082C191.195 189.924 192.077 189.68 192.729 189.191C193.38 188.697 193.705 188.013 193.705 187.141C193.705 186.444 193.464 185.897 192.982 185.5C192.507 185.103 191.859 184.904 191.039 184.904C190.414 184.904 189.825 184.989 189.271 185.158C188.718 185.327 188.087 185.64 187.377 186.096L186.557 185.002C187.143 184.54 187.816 184.178 188.578 183.918C189.346 183.651 190.154 183.518 191 183.518C192.387 183.518 193.464 183.837 194.232 184.475C195.001 185.106 195.385 185.975 195.385 187.082ZM207.445 190.842C207.445 193.309 207.055 195.152 206.273 196.369C205.499 197.587 204.311 198.195 202.709 198.195C201.173 198.195 200.004 197.574 199.203 196.33C198.402 195.08 198.002 193.251 198.002 190.842C198.002 188.355 198.389 186.509 199.164 185.305C199.939 184.1 201.12 183.498 202.709 183.498C204.258 183.498 205.434 184.126 206.234 185.383C207.042 186.639 207.445 188.459 207.445 190.842ZM199.643 190.842C199.643 192.919 199.887 194.432 200.375 195.383C200.863 196.327 201.641 196.799 202.709 196.799C203.79 196.799 204.571 196.32 205.053 195.363C205.541 194.4 205.785 192.893 205.785 190.842C205.785 188.791 205.541 187.29 205.053 186.34C204.571 185.383 203.79 184.904 202.709 184.904C201.641 184.904 200.863 185.376 200.375 186.32C199.887 187.258 199.643 188.765 199.643 190.842ZM210.814 187.98C210.814 189.087 210.935 189.917 211.176 190.471C211.417 191.024 211.807 191.301 212.348 191.301C213.415 191.301 213.949 190.194 213.949 187.98C213.949 185.78 213.415 184.68 212.348 184.68C211.807 184.68 211.417 184.953 211.176 185.5C210.935 186.047 210.814 186.874 210.814 187.98ZM215.287 187.98C215.287 189.465 215.036 190.588 214.535 191.35C214.04 192.105 213.311 192.482 212.348 192.482C211.436 192.482 210.727 192.095 210.219 191.32C209.717 190.546 209.467 189.432 209.467 187.98C209.467 186.503 209.708 185.389 210.189 184.641C210.678 183.892 211.397 183.518 212.348 183.518C213.292 183.518 214.018 183.905 214.525 184.68C215.033 185.454 215.287 186.555 215.287 187.98ZM219.408 193.703C219.408 194.816 219.529 195.65 219.77 196.203C220.01 196.75 220.404 197.023 220.951 197.023C221.498 197.023 221.902 196.753 222.162 196.213C222.423 195.666 222.553 194.829 222.553 193.703C222.553 192.59 222.423 191.766 222.162 191.232C221.902 190.692 221.498 190.422 220.951 190.422C220.404 190.422 220.01 190.692 219.77 191.232C219.529 191.766 219.408 192.59 219.408 193.703ZM223.891 193.703C223.891 195.181 223.64 196.301 223.139 197.062C222.644 197.818 221.915 198.195 220.951 198.195C220.027 198.195 219.314 197.808 218.812 197.033C218.318 196.258 218.07 195.148 218.07 193.703C218.07 192.225 218.311 191.112 218.793 190.363C219.281 189.615 220.001 189.24 220.951 189.24C221.876 189.24 222.595 189.624 223.109 190.393C223.63 191.154 223.891 192.258 223.891 193.703ZM221.371 183.723L213.451 198H212.016L219.936 183.723H221.371ZM93.8516 212.297V219.084L93.7832 220.861L93.7539 221.418L99.5449 212.297H101.566V223H100.053V216.457L100.082 215.168L100.131 213.898L94.3496 223H92.3281V212.297H93.8516ZM109.643 216.584C109.643 214.24 109.988 212.414 110.678 211.105C111.368 209.79 112.462 208.97 113.959 208.645C115.821 208.247 117.462 207.925 118.881 207.678L119.184 209.104C116.924 209.481 115.31 209.781 114.34 210.002C113.396 210.217 112.686 210.725 112.211 211.525C111.742 212.326 111.485 213.417 111.439 214.797H111.557C111.96 214.25 112.481 213.82 113.119 213.508C113.757 213.195 114.424 213.039 115.121 213.039C116.436 213.039 117.462 213.465 118.197 214.318C118.933 215.171 119.301 216.353 119.301 217.863C119.301 219.536 118.874 220.845 118.021 221.789C117.169 222.727 115.98 223.195 114.457 223.195C112.953 223.195 111.775 222.619 110.922 221.467C110.069 220.314 109.643 218.687 109.643 216.584ZM114.604 221.838C116.589 221.838 117.582 220.572 117.582 218.039C117.582 215.624 116.68 214.416 114.877 214.416C114.382 214.416 113.904 214.52 113.441 214.729C112.986 214.93 112.566 215.201 112.182 215.539C111.804 215.878 111.511 216.226 111.303 216.584C111.303 218.296 111.573 219.602 112.113 220.5C112.654 221.392 113.484 221.838 114.604 221.838ZM131.371 217.639C131.371 219.383 130.932 220.747 130.053 221.73C129.174 222.707 127.96 223.195 126.41 223.195C125.453 223.195 124.604 222.971 123.861 222.521C123.119 222.072 122.546 221.428 122.143 220.588C121.739 219.748 121.537 218.765 121.537 217.639C121.537 215.894 121.973 214.536 122.846 213.566C123.718 212.59 124.929 212.102 126.479 212.102C127.976 212.102 129.164 212.6 130.043 213.596C130.928 214.592 131.371 215.939 131.371 217.639ZM123.217 217.639C123.217 219.006 123.49 220.048 124.037 220.764C124.584 221.48 125.388 221.838 126.449 221.838C127.51 221.838 128.314 221.483 128.861 220.773C129.415 220.057 129.691 219.012 129.691 217.639C129.691 216.278 129.415 215.246 128.861 214.543C128.314 213.833 127.504 213.479 126.43 213.479C125.368 213.479 124.568 213.827 124.027 214.523C123.487 215.22 123.217 216.258 123.217 217.639ZM142.201 223H140.561V213.684H137.348C137.172 216.001 136.928 217.84 136.615 219.201C136.303 220.562 135.896 221.558 135.395 222.189C134.9 222.821 134.268 223.137 133.5 223.137C133.148 223.137 132.868 223.098 132.66 223.02V221.818C132.803 221.857 132.966 221.877 133.148 221.877C133.897 221.877 134.493 221.086 134.936 219.504C135.378 217.922 135.714 215.52 135.941 212.297H142.201V223ZM150.17 223.195C148.588 223.195 147.338 222.714 146.42 221.75C145.508 220.786 145.053 219.449 145.053 217.736C145.053 216.011 145.476 214.641 146.322 213.625C147.175 212.609 148.318 212.102 149.75 212.102C151.091 212.102 152.152 212.544 152.934 213.43C153.715 214.309 154.105 215.471 154.105 216.916V217.941H146.732C146.765 219.198 147.081 220.152 147.68 220.803C148.285 221.454 149.135 221.779 150.229 221.779C151.381 221.779 152.52 221.538 153.646 221.057V222.502C153.074 222.749 152.53 222.925 152.016 223.029C151.508 223.14 150.893 223.195 150.17 223.195ZM149.73 213.459C148.871 213.459 148.184 213.739 147.67 214.299C147.162 214.859 146.863 215.633 146.771 216.623H152.367C152.367 215.601 152.139 214.82 151.684 214.279C151.228 213.732 150.577 213.459 149.73 213.459ZM161.4 223.195C159.818 223.195 158.568 222.714 157.65 221.75C156.739 220.786 156.283 219.449 156.283 217.736C156.283 216.011 156.706 214.641 157.553 213.625C158.406 212.609 159.548 212.102 160.98 212.102C162.322 212.102 163.383 212.544 164.164 213.43C164.945 214.309 165.336 215.471 165.336 216.916V217.941H157.963C157.995 219.198 158.311 220.152 158.91 220.803C159.516 221.454 160.365 221.779 161.459 221.779C162.611 221.779 163.751 221.538 164.877 221.057V222.502C164.304 222.749 163.76 222.925 163.246 223.029C162.738 223.14 162.123 223.195 161.4 223.195ZM160.961 213.459C160.102 213.459 159.415 213.739 158.9 214.299C158.393 214.859 158.093 215.633 158.002 216.623H163.598C163.598 215.601 163.37 214.82 162.914 214.279C162.458 213.732 161.807 213.459 160.961 213.459Z" fill="black"/>
<line x1="29" y1="141.5" x2="238" y2="141.5" stroke="#B4ABAB" stroke-width="3"/>
<path d="M129.5 34.25C129.5 33.9185 129.632 33.6005 129.866 33.3661C130.101 33.1317 130.418 33 130.75 33H139.5C139.832 33 140.149 33.1317 140.384 33.3661C140.618 33.6005 140.75 33.9185 140.75 34.25C140.75 34.5815 140.618 34.8995 140.384 35.1339C140.149 35.3683 139.832 35.5 139.5 35.5H130.75C130.418 35.5 130.101 35.3683 129.866 35.1339C129.632 34.8995 129.5 34.5815 129.5 34.25ZM129.5 41.75C129.5 41.4185 129.632 41.1005 129.866 40.8661C130.101 40.6317 130.418 40.5 130.75 40.5H139.5C139.832 40.5 140.149 40.6317 140.384 40.8661C140.618 41.1005 140.75 41.4185 140.75 41.75C140.75 42.0815 140.618 42.3995 140.384 42.6339C140.149 42.8683 139.832 43 139.5 43H130.75C130.418 43 130.101 42.8683 129.866 42.6339C129.632 42.3995 129.5 42.0815 129.5 41.75ZM129.5 49.25C129.5 48.9185 129.632 48.6005 129.866 48.3661C130.101 48.1317 130.418 48 130.75 48H139.5C139.832 48 140.149 48.1317 140.384 48.3661C140.618 48.6005 140.75 48.9185 140.75 49.25C140.75 49.5815 140.618 49.8995 140.384 50.1339C140.149 50.3683 139.832 50.5 139.5 50.5H130.75C130.418 50.5 130.101 50.3683 129.866 50.1339C129.632 49.8995 129.5 49.5815 129.5 49.25ZM127 34.25C127 34.7473 126.802 35.2242 126.451 35.5758C126.099 35.9275 125.622 36.125 125.125 36.125C124.628 36.125 124.151 35.9275 123.799 35.5758C123.448 35.2242 123.25 34.7473 123.25 34.25C123.25 33.7527 123.448 33.2758 123.799 32.9242C124.151 32.5725 124.628 32.375 125.125 32.375C125.622 32.375 126.099 32.5725 126.451 32.9242C126.802 33.2758 127 33.7527 127 34.25ZM127 41.75C127 42.2473 126.802 42.7242 126.451 43.0758C126.099 43.4275 125.622 43.625 125.125 43.625C124.628 43.625 124.151 43.4275 123.799 43.0758C123.448 42.7242 123.25 42.2473 123.25 41.75C123.25 41.2527 123.448 40.7758 123.799 40.4242C124.151 40.0725 124.628 39.875 125.125 39.875C125.622 39.875 126.099 40.0725 126.451 40.4242C126.802 40.7758 127 41.2527 127 41.75ZM125.125 51.125C125.622 51.125 126.099 50.9275 126.451 50.5758C126.802 50.2242 127 49.7473 127 49.25C127 48.7527 126.802 48.2758 126.451 47.9242C126.099 47.5725 125.622 47.375 125.125 47.375C124.628 47.375 124.151 47.5725 123.799 47.9242C123.448 48.2758 123.25 48.7527 123.25 49.25C123.25 49.7473 123.448 50.2242 123.799 50.5758C124.151 50.9275 124.628 51.125 125.125 51.125ZM124.713 20.5C124.971 19.7686 125.45 19.1353 126.084 18.6876C126.717 18.2398 127.474 17.9996 128.25 18H135.75C136.526 17.9996 137.283 18.2398 137.916 18.6876C138.55 19.1353 139.029 19.7686 139.288 20.5H143.25C144.245 20.5 145.198 20.8951 145.902 21.5984C146.605 22.3016 147 23.2554 147 24.25V54.25C147 55.2446 146.605 56.1984 145.902 56.9016C145.198 57.6049 144.245 58 143.25 58H120.75C119.755 58 118.802 57.6049 118.098 56.9016C117.395 56.1984 117 55.2446 117 54.25V24.25C117 23.2554 117.395 22.3016 118.098 21.5984C118.802 20.8951 119.755 20.5 120.75 20.5H124.713ZM128.25 20.5C127.918 20.5 127.601 20.6317 127.366 20.8661C127.132 21.1005 127 21.4185 127 21.75C127 22.0815 127.132 22.3995 127.366 22.6339C127.601 22.8683 127.918 23 128.25 23H135.75C136.082 23 136.399 22.8683 136.634 22.6339C136.868 22.3995 137 22.0815 137 21.75C137 21.4185 136.868 21.1005 136.634 20.8661C136.399 20.6317 136.082 20.5 135.75 20.5H128.25ZM124.713 23H120.75C120.418 23 120.101 23.1317 119.866 23.3661C119.632 23.6005 119.5 23.9185 119.5 24.25V54.25C119.5 54.5815 119.632 54.8995 119.866 55.1339C120.101 55.3683 120.418 55.5 120.75 55.5H143.25C143.582 55.5 143.899 55.3683 144.134 55.1339C144.368 54.8995 144.5 54.5815 144.5 54.25V24.25C144.5 23.9185 144.368 23.6005 144.134 23.3661C143.899 23.1317 143.582 23 143.25 23H139.288C139.029 23.7314 138.55 24.3647 137.916 24.8124C137.283 25.2602 136.526 25.5004 135.75 25.5H128.25C127.474 25.5004 126.717 25.2602 126.084 24.8124C125.45 24.3647 124.971 23.7314 124.713 23Z" fill="black"/>
<defs>
<filter id="filter0_dd" x="0.0223699" y="36.5205" width="260.955" height="222.955" filterUnits="userSpaceOnUse" color-interpolation-filters="sRGB">
<feFlood flood-opacity="0" result="BackgroundImageFix"/>
<feColorMatrix in="SourceAlpha" type="matrix" values="0 0 0 0 0 0 0 0 0 0 0 0 0 0 0 0 0 0 127 0" result="hardAlpha"/>
<feOffset dy="0.498136"/>
<feGaussianBlur stdDeviation="2.98882"/>
<feColorMatrix type="matrix" values="0 0 0 0 0 0 0 0 0 0 0 0 0 0 0 0 0 0 0.08 0"/>
<feBlend mode="normal" in2="BackgroundImageFix" result="effect1_dropShadow"/>
<feColorMatrix in="SourceAlpha" type="matrix" values="0 0 0 0 0 0 0 0 0 0 0 0 0 0 0 0 0 0 127 0" result="hardAlpha"/>
<feOffset/>
<feGaussianBlur stdDeviation="0.249068"/>
<feColorMatrix type="matrix" values="0 0 0 0 0 0 0 0 0 0 0 0 0 0 0 0 0 0 0.08 0"/>
<feBlend mode="normal" in2="effect1_dropShadow" result="effect2_dropShadow"/>
<feBlend mode="normal" in="SourceGraphic" in2="effect2_dropShadow" result="shape"/>
</filter>
<linearGradient id="paint0_linear" x1="101.648" y1="69.8152" x2="220.292" y2="28.0416" gradientUnits="userSpaceOnUse">
<stop stop-color="#35CC79"/>
<stop offset="1" stop-color="#347D55" stop-opacity="0.65"/>
</linearGradient>
<linearGradient id="paint1_linear" x1="32.56" y1="235.687" x2="404.867" y2="80.9925" gradientUnits="userSpaceOnUse">
<stop stop-color="#35CC79"/>
<stop offset="1" stop-color="#347D55" stop-opacity="0.65"/>
</linearGradient>
</defs>
</svg>
